*
G04 Mass Parameters ***
*
G04 Image ***
*
%INC:\USERS\INAVA\DESKTOP\TEMPERATURA\OROLOGIOFINE.AST*%
%ICAS*%
%MOIN*%
%IPPOS*%
%ASAXBY*%
G74*%FSLAN2X34Y34*%
*
G04 Aperture Definitions ***
*
%ADD10O,0.0620X0.1000*%
%ADD11C,0.1000*%
%ADD12O,0.1000X0.0750*%
%ADD13C,0.1200*%
%ADD14C,0.1575*%
%ADD15O,0.1000X0.0620*%
%ADD16C,0.0630*%
%ADD17C,0.0200*%
%ADD18C,0.0630*%
%ADD19C,0.0250*%
%ADD20C,0.0197*%
%ADD21C,0.0700*%
%ADD22C,0.1575*%
%ADD23C,0.0787*%
%ADD24C,0.0670*%
%ADD25R,0.0670X0.0670*%
%ADD26C,0.0350*%
%ADD27C,0.0080*%
%ADD28C,0.0100*%
%ADD29C,0.0079*%
%ADD30C,0.0010*%
*
G04 Plot Data ***
*
G54D23*
G01X0000700Y0000400D02*
Y0039500D01*
X0064100D01*
Y0000400D01*
X0000700D01*
G54D27*
G01X0002667Y0002012D02*
Y0001901D01*
Y0001957D02*
X0002334D01*
X0002390Y0001901D01*
X0002556Y0001463D02*
X0002612D01*
X0002667Y0001491D01*
Y0001602D01*
X0002612Y0001630D01*
X0002334D01*
Y0001658D02*
Y0001547D01*
X0055639Y0006183D02*
X0055417D01*
X0055639Y0006405D01*
Y0006460D01*
X0055612Y0006516D01*
X0055445D01*
X0055417Y0006460D01*
X0055229Y0006238D02*
X0055202Y0006183D01*
X0055035D01*
X0055007Y0006238D01*
Y0006460D01*
X0055035Y0006516D01*
X0055202D01*
X0055229Y0006460D01*
X0058318Y0003868D02*
X0058401Y0003702D01*
X0058179Y0003868D02*
X0058345D01*
X0058401Y0003924D01*
Y0003979D01*
X0058345Y0004035D01*
X0058179D01*
Y0003702D01*
X0057797D02*
X0057769Y0003757D01*
Y0003979D01*
X0057797Y0004035D01*
X0057963D01*
X0057991Y0003979D01*
Y0003757D01*
X0057963Y0003702D01*
X0057797D01*
X0057470D02*
Y0004035D01*
X0057581D02*
X0057359D01*
X0057171Y0003702D02*
X0057060D01*
X0057116D02*
Y0004035D01*
X0057171D02*
X0057060D01*
X0056817Y0003757D02*
X0056789Y0003702D01*
X0056622D01*
X0056594Y0003757D01*
Y0003979D01*
X0056622Y0004035D01*
X0056789D01*
X0056817Y0003979D01*
X0056407Y0003813D02*
X0056184D01*
X0056407Y0003702D02*
Y0003868D01*
X0056323Y0004035D01*
X0056268D01*
X0056184Y0003868D01*
Y0003702D01*
X0055774Y0003868D02*
X0055941D01*
X0055997Y0003924D01*
Y0003979D01*
X0055941Y0004035D01*
X0055774D01*
Y0003702D01*
X0055587Y0003813D02*
X0055364D01*
X0055587Y0003702D02*
Y0003868D01*
X0055503Y0004035D01*
X0055448D01*
X0055364Y0003868D01*
Y0003702D01*
X0055177Y0003757D02*
X0055149Y0003702D01*
X0054982D01*
X0054954Y0003757D01*
Y0003979D01*
X0054982Y0004035D01*
X0055149D01*
X0055177Y0003979D01*
X0005517Y0003857D02*
Y0003634D01*
X0005295Y0003857D01*
X0005240D01*
X0005184Y0003829D01*
Y0003662D01*
X0005240Y0003634D01*
X0005184Y0003447D02*
X0005517D01*
X0005462Y0003391D01*
X0005240Y0003280D01*
X0005184Y0003224D01*
X0005517D01*
Y0002842D02*
X0005462Y0002814D01*
X0005240D01*
X0005184Y0002842D01*
Y0003009D01*
X0005240Y0003037D01*
X0005462D01*
X0005517Y0003009D01*
Y0002842D01*
X0005462Y0002627D02*
X0005517Y0002599D01*
Y0002432D01*
X0005462Y0002404D01*
X0005240D01*
X0005184Y0002432D01*
Y0002599D01*
X0005240Y0002627D01*
X0004007Y0009456D02*
Y0009289D01*
X0004173Y0009511D02*
Y0009289D01*
X0003840D01*
Y0009511D01*
X0004173Y0008907D02*
X0003840D01*
X0004173Y0008879D02*
Y0009046D01*
X0004062Y0009101D01*
X0003951D01*
X0003840Y0009046D01*
Y0008879D01*
X0004173Y0008497D02*
X0004118Y0008469D01*
X0003896D01*
X0003840Y0008497D01*
Y0008663D01*
X0003896Y0008691D01*
X0004118D01*
X0004173Y0008663D01*
Y0008497D01*
Y0008281D02*
Y0008170D01*
Y0008226D02*
X0003840D01*
Y0008281D02*
Y0008170D01*
X0004173Y0007732D02*
X0003840D01*
X0004173Y0007704D02*
Y0007871D01*
X0004062Y0007927D01*
X0003951D01*
X0003840Y0007871D01*
Y0007704D01*
X0002192Y0008084D02*
Y0007973D01*
Y0008028D02*
X0001859D01*
X0001915Y0007973D01*
X0002192Y0007535D02*
X0001859D01*
X0002192Y0007507D02*
Y0007674D01*
X0002081Y0007729D01*
X0001970D01*
X0001859Y0007674D01*
Y0007507D01*
X0000827Y0027099D02*
X0001160D01*
Y0026988D02*
Y0027211D01*
X0001104Y0027398D02*
X0001160Y0027426D01*
Y0027593D01*
X0001104Y0027621D01*
X0001049D01*
X0000993Y0027593D01*
Y0027426D01*
X0000938Y0027398D01*
X0000882D01*
X0000827Y0027426D01*
Y0027593D01*
X0000882Y0027621D01*
X0000993Y0028031D02*
Y0027864D01*
X0001049Y0027808D01*
X0001104D01*
X0001160Y0027864D01*
Y0028031D01*
X0000827D01*
X0001104Y0028218D02*
X0001160Y0028246D01*
Y0028413D01*
X0001104Y0028441D01*
X0001049D01*
X0000993Y0028413D01*
Y0028246D01*
X0000938Y0028218D01*
X0000882D01*
X0000827Y0028246D01*
Y0028413D01*
X0000882Y0028441D01*
X0001160Y0029163D02*
X0000882D01*
X0000827Y0029191D01*
X0000993Y0029274D01*
X0001049D02*
X0000993D01*
X0000827Y0029358D01*
X0000882Y0029386D01*
X0001160D01*
X0001104Y0029573D02*
X0001160Y0029601D01*
Y0029768D01*
X0001104Y0029796D01*
X0001049D01*
X0000993Y0029768D01*
Y0029601D01*
X0000938Y0029573D01*
X0000882D01*
X0000827Y0029601D01*
Y0029768D01*
X0000882Y0029796D01*
X0005169Y0027826D02*
Y0028048D01*
X0005391Y0027937D01*
Y0027881D01*
X0005058D01*
X0005391Y0028236D02*
X0005113D01*
X0005058Y0028263D01*
X0005224Y0028347D01*
X0005280D02*
X0005224D01*
X0005058Y0028430D01*
X0005113Y0028458D01*
X0005391D01*
X0005335Y0028646D02*
X0005391Y0028673D01*
Y0028840D01*
X0005335Y0028868D01*
X0005280D01*
X0005224Y0028840D01*
Y0028673D01*
X0005169Y0028646D01*
X0005113D01*
X0005058Y0028673D01*
Y0028840D01*
X0005113Y0028868D01*
X0024868Y0016092D02*
X0024702Y0016009D01*
X0024868Y0016231D02*
Y0016065D01*
X0024924Y0016009D01*
X0024979D01*
X0025035Y0016065D01*
Y0016231D01*
X0024702D01*
Y0016613D02*
X0024757Y0016641D01*
X0024979D01*
X0025035Y0016613D01*
Y0016447D01*
X0024979Y0016419D01*
X0024757D01*
X0024702Y0016447D01*
Y0016613D01*
Y0016940D02*
X0025035D01*
Y0016829D02*
Y0017051D01*
X0024979Y0017239D02*
X0025035Y0017267D01*
Y0017433D01*
X0024979Y0017461D01*
X0024924D01*
X0024868Y0017433D01*
Y0017267D01*
X0024813Y0017239D01*
X0024757D01*
X0024702Y0017267D01*
Y0017433D01*
X0024757Y0017461D01*
X0024702Y0017649D02*
Y0017760D01*
Y0017704D02*
X0025035D01*
Y0017649D02*
Y0017760D01*
X0024979Y0018003D02*
X0025035Y0018031D01*
Y0018198D01*
X0024979Y0018226D01*
X0024924D01*
X0024868Y0018198D01*
Y0018031D01*
X0024813Y0018003D01*
X0024757D01*
X0024702Y0018031D01*
Y0018198D01*
X0024757Y0018226D01*
X0024868Y0018469D02*
Y0018636D01*
X0024702Y0018413D02*
Y0018636D01*
X0025035D01*
Y0018413D01*
X0024868Y0018907D02*
X0024702Y0018823D01*
X0024868Y0019046D02*
Y0018879D01*
X0024924Y0018823D01*
X0024979D01*
X0025035Y0018879D01*
Y0019046D01*
X0024702D01*
X0026683Y0017826D02*
Y0018048D01*
X0026905Y0017826D01*
X0026960D01*
X0027016Y0017853D01*
Y0018020D01*
X0026960Y0018048D01*
X0026738Y0018458D02*
X0026683Y0018402D01*
Y0018291D01*
X0026738Y0018236D01*
X0026794D01*
X0026905Y0018347D01*
X0027016Y0018236D01*
Y0018458D01*
X0026849Y0018729D02*
X0026683Y0018646D01*
X0026849Y0018868D02*
Y0018701D01*
X0026905Y0018646D01*
X0026960D01*
X0027016Y0018701D01*
Y0018868D01*
X0026683D01*
X0019457Y0026255D02*
X0019346Y0026033D01*
X0019290Y0025922D02*
X0019346Y0026033D01*
X0019235Y0026255D01*
X0018881D02*
X0018992D01*
X0019019Y0026199D01*
Y0026088D01*
X0019047Y0026033D01*
X0018853D01*
X0018825Y0026088D01*
X0018853Y0026144D01*
X0019019D01*
X0018637Y0026033D02*
X0018526D01*
X0018582D02*
Y0026366D01*
X0018526D01*
X0018116Y0025922D02*
Y0026255D01*
X0018283D01*
X0018311Y0026199D01*
Y0026088D01*
X0018283Y0026033D01*
X0018116D01*
X0017901Y0026255D02*
X0017734D01*
X0017706Y0026199D01*
X0017734Y0026144D01*
X0017901D01*
X0017928Y0026088D01*
X0017901Y0026033D01*
X0017734D01*
X0017462Y0026366D03*
X0017463D01*
X0017462D01*
X0017518Y0026033D02*
X0017407D01*
X0017463D02*
Y0026255D01*
X0017407D01*
X0016997Y0026033D02*
Y0026366D01*
X0016969Y0026033D02*
X0017136D01*
X0017192Y0026144D01*
Y0026255D01*
X0017136Y0026366D01*
X0016969D01*
X0028490Y0031213D02*
X0028546Y0031158D01*
X0028657D01*
X0028713Y0031213D01*
Y0031269D01*
X0028602Y0031380D01*
X0028713Y0031491D01*
X0028490D01*
X0028108Y0031269D02*
Y0031213D01*
X0028136Y0031158D01*
X0028247D01*
X0028275Y0031213D01*
Y0031491D01*
X0028303D02*
X0028192D01*
X0030457Y0026255D02*
X0030346Y0026033D01*
X0030290Y0025922D02*
X0030346Y0026033D01*
X0030235Y0026255D01*
X0029881D02*
X0029992D01*
X0030019Y0026199D01*
Y0026088D01*
X0030047Y0026033D01*
X0029853D01*
X0029825Y0026088D01*
X0029853Y0026144D01*
X0030019D01*
X0029637Y0026033D02*
X0029526D01*
X0029582D02*
Y0026366D01*
X0029526D01*
X0029116Y0025922D02*
Y0026255D01*
X0029283D01*
X0029311Y0026199D01*
Y0026088D01*
X0029283Y0026033D01*
X0029116D01*
X0028901Y0026255D02*
X0028734D01*
X0028706Y0026199D01*
X0028734Y0026144D01*
X0028901D01*
X0028928Y0026088D01*
X0028901Y0026033D01*
X0028734D01*
X0028462Y0026366D03*
X0028463D01*
X0028462D01*
X0028518Y0026033D02*
X0028407D01*
X0028463D02*
Y0026255D01*
X0028407D01*
X0027997Y0026033D02*
Y0026366D01*
X0027969Y0026033D02*
X0028136D01*
X0028192Y0026144D01*
Y0026255D01*
X0028136Y0026366D01*
X0027969D01*
X0062887Y0034608D02*
X0062859Y0034663D01*
Y0034885D01*
X0062887Y0034941D01*
X0063053D01*
X0063081Y0034885D01*
Y0034663D01*
X0063053Y0034608D01*
X0062887D01*
X0062560D02*
Y0034941D01*
X0062671D02*
X0062449D01*
X0062261D02*
X0062094Y0034608D01*
X0061657Y0034663D02*
X0061684Y0034608D01*
X0061851D01*
X0061879Y0034663D01*
Y0034774D01*
X0061823Y0034830D01*
X0061657D01*
Y0034941D01*
X0061879D01*
X0061247Y0034663D02*
X0061302Y0034608D01*
X0061413D01*
X0061469Y0034663D01*
Y0034719D01*
X0061358Y0034830D01*
X0061469Y0034941D01*
X0061247D01*
X0061059Y0034608D02*
Y0034941D01*
X0061003Y0034885D01*
X0060948Y0034774D01*
X0060892Y0034885D01*
X0060837Y0034941D01*
Y0034608D01*
X0060649D02*
X0060454D01*
Y0034941D01*
X0061240Y0037308D02*
X0061129D01*
X0061184D02*
Y0037641D01*
X0061129Y0037585D01*
X0060885Y0037641D02*
Y0037363D01*
X0060858Y0037308D01*
X0060691D01*
X0060663Y0037363D01*
Y0037641D01*
X0008457Y0026255D02*
X0008346Y0026033D01*
X0008290Y0025922D02*
X0008346Y0026033D01*
X0008235Y0026255D01*
X0007881D02*
X0007992D01*
X0008019Y0026199D01*
Y0026088D01*
X0008047Y0026033D01*
X0007853D01*
X0007825Y0026088D01*
X0007853Y0026144D01*
X0008019D01*
X0007637Y0026033D02*
X0007526D01*
X0007582D02*
Y0026366D01*
X0007526D01*
X0007116Y0025922D02*
Y0026255D01*
X0007283D01*
X0007311Y0026199D01*
Y0026088D01*
X0007283Y0026033D01*
X0007116D01*
X0006901Y0026255D02*
X0006734D01*
X0006706Y0026199D01*
X0006734Y0026144D01*
X0006901D01*
X0006928Y0026088D01*
X0006901Y0026033D01*
X0006734D01*
X0006462Y0026366D03*
X0006463D01*
X0006462D01*
X0006518Y0026033D02*
X0006407D01*
X0006463D02*
Y0026255D01*
X0006407D01*
X0005997Y0026033D02*
Y0026366D01*
X0005969Y0026033D02*
X0006136D01*
X0006192Y0026144D01*
Y0026255D01*
X0006136Y0026366D01*
X0005969D01*
X0017713Y0031158D02*
X0017490D01*
X0017713Y0031380D01*
Y0031435D01*
X0017685Y0031491D01*
X0017518D01*
X0017490Y0031435D01*
X0017108Y0031269D02*
Y0031213D01*
X0017136Y0031158D01*
X0017247D01*
X0017275Y0031213D01*
Y0031491D01*
X0017303D02*
X0017192D01*
X0002368Y0016092D02*
X0002202Y0016009D01*
X0002368Y0016231D02*
Y0016065D01*
X0002424Y0016009D01*
X0002479D01*
X0002535Y0016065D01*
Y0016231D01*
X0002202D01*
Y0016613D02*
X0002257Y0016641D01*
X0002479D01*
X0002535Y0016613D01*
Y0016447D01*
X0002479Y0016419D01*
X0002257D01*
X0002202Y0016447D01*
Y0016613D01*
Y0016940D02*
X0002535D01*
Y0016829D02*
Y0017051D01*
X0002479Y0017239D02*
X0002535Y0017267D01*
Y0017433D01*
X0002479Y0017461D01*
X0002424D01*
X0002368Y0017433D01*
Y0017267D01*
X0002313Y0017239D01*
X0002257D01*
X0002202Y0017267D01*
Y0017433D01*
X0002257Y0017461D01*
X0002202Y0017649D02*
Y0017760D01*
Y0017704D02*
X0002535D01*
Y0017649D02*
Y0017760D01*
X0002479Y0018003D02*
X0002535Y0018031D01*
Y0018198D01*
X0002479Y0018226D01*
X0002424D01*
X0002368Y0018198D01*
Y0018031D01*
X0002313Y0018003D01*
X0002257D01*
X0002202Y0018031D01*
Y0018198D01*
X0002257Y0018226D01*
X0002368Y0018469D02*
Y0018636D01*
X0002202Y0018413D02*
Y0018636D01*
X0002535D01*
Y0018413D01*
X0002368Y0018907D02*
X0002202Y0018823D01*
X0002368Y0019046D02*
Y0018879D01*
X0002424Y0018823D01*
X0002479D01*
X0002535Y0018879D01*
Y0019046D01*
X0002202D01*
X0041238Y0018103D02*
X0041183Y0018076D01*
Y0017909D01*
X0041238Y0017881D01*
X0041349D01*
X0041405Y0017937D01*
Y0018103D01*
X0041516D01*
Y0017881D01*
X0041183Y0018291D02*
Y0018402D01*
Y0018347D02*
X0041516D01*
X0041460Y0018402D01*
X0041349Y0018729D02*
X0041183Y0018646D01*
X0041349Y0018868D02*
Y0018701D01*
X0041405Y0018646D01*
X0041460D01*
X0041516Y0018701D01*
Y0018868D01*
X0041183D01*
X0039368Y0016092D02*
X0039202Y0016009D01*
X0039368Y0016231D02*
Y0016065D01*
X0039424Y0016009D01*
X0039479D01*
X0039535Y0016065D01*
Y0016231D01*
X0039202D01*
Y0016613D02*
X0039257Y0016641D01*
X0039479D01*
X0039535Y0016613D01*
Y0016447D01*
X0039479Y0016419D01*
X0039257D01*
X0039202Y0016447D01*
Y0016613D01*
Y0016940D02*
X0039535D01*
Y0016829D02*
Y0017051D01*
X0039479Y0017239D02*
X0039535Y0017267D01*
Y0017433D01*
X0039479Y0017461D01*
X0039424D01*
X0039368Y0017433D01*
Y0017267D01*
X0039313Y0017239D01*
X0039257D01*
X0039202Y0017267D01*
Y0017433D01*
X0039257Y0017461D01*
X0039202Y0017649D02*
Y0017760D01*
Y0017704D02*
X0039535D01*
Y0017649D02*
Y0017760D01*
X0039479Y0018003D02*
X0039535Y0018031D01*
Y0018198D01*
X0039479Y0018226D01*
X0039424D01*
X0039368Y0018198D01*
Y0018031D01*
X0039313Y0018003D01*
X0039257D01*
X0039202Y0018031D01*
Y0018198D01*
X0039257Y0018226D01*
X0039368Y0018469D02*
Y0018636D01*
X0039202Y0018413D02*
Y0018636D01*
X0039535D01*
Y0018413D01*
X0039368Y0018907D02*
X0039202Y0018823D01*
X0039368Y0019046D02*
Y0018879D01*
X0039424Y0018823D01*
X0039479D01*
X0039535Y0018879D01*
Y0019046D01*
X0039202D01*
X0015206Y0017764D02*
Y0017542D01*
X0014984Y0017653D01*
Y0017709D01*
X0015317D01*
X0015151Y0017271D02*
X0015317Y0017354D01*
X0015151Y0017132D02*
Y0017299D01*
X0015095Y0017354D01*
X0015040D01*
X0014984Y0017299D01*
Y0017132D01*
X0015317D01*
X0017132Y0019908D02*
X0017298Y0019991D01*
X0017132Y0019769D02*
Y0019935D01*
X0017076Y0019991D01*
X0017021D01*
X0016965Y0019935D01*
Y0019769D01*
X0017298D01*
Y0019387D02*
X0017243Y0019359D01*
X0017021D01*
X0016965Y0019387D01*
Y0019553D01*
X0017021Y0019581D01*
X0017243D01*
X0017298Y0019553D01*
Y0019387D01*
Y0019060D02*
X0016965D01*
Y0019171D02*
Y0018949D01*
X0017021Y0018761D02*
X0016965Y0018733D01*
Y0018567D01*
X0017021Y0018539D01*
X0017076D01*
X0017132Y0018567D01*
Y0018733D01*
X0017187Y0018761D01*
X0017243D01*
X0017298Y0018733D01*
Y0018567D01*
X0017243Y0018539D01*
X0017298Y0018351D02*
Y0018240D01*
Y0018296D02*
X0016965D01*
Y0018351D02*
Y0018240D01*
X0017021Y0017997D02*
X0016965Y0017969D01*
Y0017802D01*
X0017021Y0017774D01*
X0017076D01*
X0017132Y0017802D01*
Y0017969D01*
X0017187Y0017997D01*
X0017243D01*
X0017298Y0017969D01*
Y0017802D01*
X0017243Y0017774D01*
X0017132Y0017531D02*
Y0017364D01*
X0017298Y0017587D02*
Y0017364D01*
X0016965D01*
Y0017587D01*
X0017132Y0017093D02*
X0017298Y0017177D01*
X0017132Y0016954D02*
Y0017121D01*
X0017076Y0017177D01*
X0017021D01*
X0016965Y0017121D01*
Y0016954D01*
X0017298D01*
X0016817Y0017764D02*
Y0017542D01*
X0016595Y0017764D01*
X0016540D01*
X0016484Y0017737D01*
Y0017570D01*
X0016540Y0017542D01*
X0016651Y0017271D02*
X0016817Y0017354D01*
X0016651Y0017132D02*
Y0017299D01*
X0016595Y0017354D01*
X0016540D01*
X0016484Y0017299D01*
Y0017132D01*
X0016817D01*
X0018632Y0019908D02*
X0018798Y0019991D01*
X0018632Y0019769D02*
Y0019935D01*
X0018576Y0019991D01*
X0018521D01*
X0018465Y0019935D01*
Y0019769D01*
X0018798D01*
Y0019387D02*
X0018743Y0019359D01*
X0018521D01*
X0018465Y0019387D01*
Y0019553D01*
X0018521Y0019581D01*
X0018743D01*
X0018798Y0019553D01*
Y0019387D01*
Y0019060D02*
X0018465D01*
Y0019171D02*
Y0018949D01*
X0018521Y0018761D02*
X0018465Y0018733D01*
Y0018567D01*
X0018521Y0018539D01*
X0018576D01*
X0018632Y0018567D01*
Y0018733D01*
X0018687Y0018761D01*
X0018743D01*
X0018798Y0018733D01*
Y0018567D01*
X0018743Y0018539D01*
X0018798Y0018351D02*
Y0018240D01*
Y0018296D02*
X0018465D01*
Y0018351D02*
Y0018240D01*
X0018521Y0017997D02*
X0018465Y0017969D01*
Y0017802D01*
X0018521Y0017774D01*
X0018576D01*
X0018632Y0017802D01*
Y0017969D01*
X0018687Y0017997D01*
X0018743D01*
X0018798Y0017969D01*
Y0017802D01*
X0018743Y0017774D01*
X0018632Y0017531D02*
Y0017364D01*
X0018798Y0017587D02*
Y0017364D01*
X0018465D01*
Y0017587D01*
X0018632Y0017093D02*
X0018798Y0017177D01*
X0018632Y0016954D02*
Y0017121D01*
X0018576Y0017177D01*
X0018521D01*
X0018465Y0017121D01*
Y0016954D01*
X0018798D01*
X0005738Y0018048D02*
X0005683Y0018020D01*
Y0017853D01*
X0005738Y0017826D01*
X0005849D01*
X0005905Y0017881D01*
Y0018048D01*
X0006016D01*
Y0017826D01*
X0005683Y0018236D02*
Y0018458D01*
X0005905Y0018236D01*
X0005960D01*
X0006016Y0018263D01*
Y0018430D01*
X0005960Y0018458D01*
X0005849Y0018729D02*
X0005683Y0018646D01*
X0005849Y0018868D02*
Y0018701D01*
X0005905Y0018646D01*
X0005960D01*
X0006016Y0018701D01*
Y0018868D01*
X0005683D01*
X0003868Y0016092D02*
X0003702Y0016009D01*
X0003868Y0016231D02*
Y0016065D01*
X0003924Y0016009D01*
X0003979D01*
X0004035Y0016065D01*
Y0016231D01*
X0003702D01*
Y0016613D02*
X0003757Y0016641D01*
X0003979D01*
X0004035Y0016613D01*
Y0016447D01*
X0003979Y0016419D01*
X0003757D01*
X0003702Y0016447D01*
Y0016613D01*
Y0016940D02*
X0004035D01*
Y0016829D02*
Y0017051D01*
X0003979Y0017239D02*
X0004035Y0017267D01*
Y0017433D01*
X0003979Y0017461D01*
X0003924D01*
X0003868Y0017433D01*
Y0017267D01*
X0003813Y0017239D01*
X0003757D01*
X0003702Y0017267D01*
Y0017433D01*
X0003757Y0017461D01*
X0003702Y0017649D02*
Y0017760D01*
Y0017704D02*
X0004035D01*
Y0017649D02*
Y0017760D01*
X0003979Y0018003D02*
X0004035Y0018031D01*
Y0018198D01*
X0003979Y0018226D01*
X0003924D01*
X0003868Y0018198D01*
Y0018031D01*
X0003813Y0018003D01*
X0003757D01*
X0003702Y0018031D01*
Y0018198D01*
X0003757Y0018226D01*
X0003868Y0018469D02*
Y0018636D01*
X0003702Y0018413D02*
Y0018636D01*
X0004035D01*
Y0018413D01*
X0003868Y0018907D02*
X0003702Y0018823D01*
X0003868Y0019046D02*
Y0018879D01*
X0003924Y0018823D01*
X0003979D01*
X0004035Y0018879D01*
Y0019046D01*
X0003702D01*
X0037683Y0018020D02*
X0037738Y0018076D01*
X0037794Y0018103D01*
X0037905D01*
X0037960Y0018076D01*
X0038016Y0018020D01*
Y0017964D01*
X0037960Y0017909D01*
X0037905Y0017881D01*
X0037794D01*
X0037738Y0017909D01*
X0037683Y0017964D01*
Y0018020D01*
Y0018291D02*
Y0018402D01*
Y0018347D02*
X0038016D01*
X0037960Y0018402D01*
X0037849Y0018729D02*
X0037683Y0018646D01*
X0037849Y0018868D02*
Y0018701D01*
X0037905Y0018646D01*
X0037960D01*
X0038016Y0018701D01*
Y0018868D01*
X0037683D01*
X0035868Y0016092D02*
X0035702Y0016009D01*
X0035868Y0016231D02*
Y0016065D01*
X0035924Y0016009D01*
X0035979D01*
X0036035Y0016065D01*
Y0016231D01*
X0035702D01*
Y0016613D02*
X0035757Y0016641D01*
X0035979D01*
X0036035Y0016613D01*
Y0016447D01*
X0035979Y0016419D01*
X0035757D01*
X0035702Y0016447D01*
Y0016613D01*
Y0016940D02*
X0036035D01*
Y0016829D02*
Y0017051D01*
X0035979Y0017239D02*
X0036035Y0017267D01*
Y0017433D01*
X0035979Y0017461D01*
X0035924D01*
X0035868Y0017433D01*
Y0017267D01*
X0035813Y0017239D01*
X0035757D01*
X0035702Y0017267D01*
Y0017433D01*
X0035757Y0017461D01*
X0035702Y0017649D02*
Y0017760D01*
Y0017704D02*
X0036035D01*
Y0017649D02*
Y0017760D01*
X0035979Y0018003D02*
X0036035Y0018031D01*
Y0018198D01*
X0035979Y0018226D01*
X0035924D01*
X0035868Y0018198D01*
Y0018031D01*
X0035813Y0018003D01*
X0035757D01*
X0035702Y0018031D01*
Y0018198D01*
X0035757Y0018226D01*
X0035868Y0018469D02*
Y0018636D01*
X0035702Y0018413D02*
Y0018636D01*
X0036035D01*
Y0018413D01*
X0035868Y0018907D02*
X0035702Y0018823D01*
X0035868Y0019046D02*
Y0018879D01*
X0035924Y0018823D01*
X0035979D01*
X0036035Y0018879D01*
Y0019046D01*
X0035702D01*
X0010349Y0018020D02*
Y0017853D01*
X0010294Y0017826D01*
X0010238D01*
X0010183Y0017853D01*
Y0018020D01*
X0010238Y0018048D01*
X0010294D01*
X0010516Y0017937D01*
X0010183Y0018236D02*
Y0018458D01*
X0010405Y0018236D01*
X0010460D01*
X0010516Y0018263D01*
Y0018430D01*
X0010460Y0018458D01*
X0010349Y0018729D02*
X0010183Y0018646D01*
X0010349Y0018868D02*
Y0018701D01*
X0010405Y0018646D01*
X0010460D01*
X0010516Y0018701D01*
Y0018868D01*
X0010183D01*
X0008368Y0016092D02*
X0008202Y0016009D01*
X0008368Y0016231D02*
Y0016065D01*
X0008424Y0016009D01*
X0008479D01*
X0008535Y0016065D01*
Y0016231D01*
X0008202D01*
Y0016613D02*
X0008257Y0016641D01*
X0008479D01*
X0008535Y0016613D01*
Y0016447D01*
X0008479Y0016419D01*
X0008257D01*
X0008202Y0016447D01*
Y0016613D01*
Y0016940D02*
X0008535D01*
Y0016829D02*
Y0017051D01*
X0008479Y0017239D02*
X0008535Y0017267D01*
Y0017433D01*
X0008479Y0017461D01*
X0008424D01*
X0008368Y0017433D01*
Y0017267D01*
X0008313Y0017239D01*
X0008257D01*
X0008202Y0017267D01*
Y0017433D01*
X0008257Y0017461D01*
X0008202Y0017649D02*
Y0017760D01*
Y0017704D02*
X0008535D01*
Y0017649D02*
Y0017760D01*
X0008479Y0018003D02*
X0008535Y0018031D01*
Y0018198D01*
X0008479Y0018226D01*
X0008424D01*
X0008368Y0018198D01*
Y0018031D01*
X0008313Y0018003D01*
X0008257D01*
X0008202Y0018031D01*
Y0018198D01*
X0008257Y0018226D01*
X0008368Y0018469D02*
Y0018636D01*
X0008202Y0018413D02*
Y0018636D01*
X0008535D01*
Y0018413D01*
X0008368Y0018907D02*
X0008202Y0018823D01*
X0008368Y0019046D02*
Y0018879D01*
X0008424Y0018823D01*
X0008479D01*
X0008535Y0018879D01*
Y0019046D01*
X0008202D01*
X0042683Y0017964D02*
X0042738Y0018020D01*
X0042794Y0018048D01*
X0042905D01*
X0042960Y0018020D01*
X0043016Y0017964D01*
Y0017909D01*
X0042960Y0017853D01*
X0042905Y0017826D01*
X0042794D01*
X0042738Y0017853D01*
X0042683Y0017909D01*
Y0017964D01*
Y0018236D02*
Y0018458D01*
X0042905Y0018236D01*
X0042960D01*
X0043016Y0018263D01*
Y0018430D01*
X0042960Y0018458D01*
X0042849Y0018729D02*
X0042683Y0018646D01*
X0042849Y0018868D02*
Y0018701D01*
X0042905Y0018646D01*
X0042960D01*
X0043016Y0018701D01*
Y0018868D01*
X0042683D01*
X0040868Y0016092D02*
X0040702Y0016009D01*
X0040868Y0016231D02*
Y0016065D01*
X0040924Y0016009D01*
X0040979D01*
X0041035Y0016065D01*
Y0016231D01*
X0040702D01*
Y0016613D02*
X0040757Y0016641D01*
X0040979D01*
X0041035Y0016613D01*
Y0016447D01*
X0040979Y0016419D01*
X0040757D01*
X0040702Y0016447D01*
Y0016613D01*
Y0016940D02*
X0041035D01*
Y0016829D02*
Y0017051D01*
X0040979Y0017239D02*
X0041035Y0017267D01*
Y0017433D01*
X0040979Y0017461D01*
X0040924D01*
X0040868Y0017433D01*
Y0017267D01*
X0040813Y0017239D01*
X0040757D01*
X0040702Y0017267D01*
Y0017433D01*
X0040757Y0017461D01*
X0040702Y0017649D02*
Y0017760D01*
Y0017704D02*
X0041035D01*
Y0017649D02*
Y0017760D01*
X0040979Y0018003D02*
X0041035Y0018031D01*
Y0018198D01*
X0040979Y0018226D01*
X0040924D01*
X0040868Y0018198D01*
Y0018031D01*
X0040813Y0018003D01*
X0040757D01*
X0040702Y0018031D01*
Y0018198D01*
X0040757Y0018226D01*
X0040868Y0018469D02*
Y0018636D01*
X0040702Y0018413D02*
Y0018636D01*
X0041035D01*
Y0018413D01*
X0040868Y0018907D02*
X0040702Y0018823D01*
X0040868Y0019046D02*
Y0018879D01*
X0040924Y0018823D01*
X0040979D01*
X0041035Y0018879D01*
Y0019046D01*
X0040702D01*
X0028349Y0018263D02*
X0028405Y0018236D01*
X0028460D01*
X0028516Y0018263D01*
Y0018430D01*
X0028460Y0018458D01*
X0028405D01*
X0028349Y0018430D01*
Y0018263D01*
X0028294Y0018236D01*
X0028238D01*
X0028183Y0018263D01*
Y0018430D01*
X0028238Y0018458D01*
X0028294D01*
X0028349Y0018430D01*
Y0018729D02*
X0028183Y0018646D01*
X0028349Y0018868D02*
Y0018701D01*
X0028405Y0018646D01*
X0028460D01*
X0028516Y0018701D01*
Y0018868D01*
X0028183D01*
X0026368Y0016092D02*
X0026202Y0016009D01*
X0026368Y0016231D02*
Y0016065D01*
X0026424Y0016009D01*
X0026479D01*
X0026535Y0016065D01*
Y0016231D01*
X0026202D01*
Y0016613D02*
X0026257Y0016641D01*
X0026479D01*
X0026535Y0016613D01*
Y0016447D01*
X0026479Y0016419D01*
X0026257D01*
X0026202Y0016447D01*
Y0016613D01*
Y0016940D02*
X0026535D01*
Y0016829D02*
Y0017051D01*
X0026479Y0017239D02*
X0026535Y0017267D01*
Y0017433D01*
X0026479Y0017461D01*
X0026424D01*
X0026368Y0017433D01*
Y0017267D01*
X0026313Y0017239D01*
X0026257D01*
X0026202Y0017267D01*
Y0017433D01*
X0026257Y0017461D01*
X0026202Y0017649D02*
Y0017760D01*
Y0017704D02*
X0026535D01*
Y0017649D02*
Y0017760D01*
X0026479Y0018003D02*
X0026535Y0018031D01*
Y0018198D01*
X0026479Y0018226D01*
X0026424D01*
X0026368Y0018198D01*
Y0018031D01*
X0026313Y0018003D01*
X0026257D01*
X0026202Y0018031D01*
Y0018198D01*
X0026257Y0018226D01*
X0026368Y0018469D02*
Y0018636D01*
X0026202Y0018413D02*
Y0018636D01*
X0026535D01*
Y0018413D01*
X0026368Y0018907D02*
X0026202Y0018823D01*
X0026368Y0019046D02*
Y0018879D01*
X0026424Y0018823D01*
X0026479D01*
X0026535Y0018879D01*
Y0019046D01*
X0026202D01*
X0053617Y0009735D02*
Y0009513D01*
X0053395Y0009735D01*
X0053340D01*
X0053284Y0009708D01*
Y0009541D01*
X0053340Y0009513D01*
X0053284Y0009325D02*
X0053562D01*
X0053617Y0009298D01*
Y0009131D01*
X0053562Y0009103D01*
X0053284D01*
X0056562Y0012323D02*
X0056617Y0012351D01*
Y0012518D01*
X0056562Y0012545D01*
X0056451D01*
X0056395Y0012490D01*
Y0012323D01*
X0056284D01*
Y0012545D01*
X0056617Y0011997D02*
X0056562Y0011941D01*
X0056506Y0011913D01*
X0056395D01*
X0056340Y0011941D01*
X0056284Y0011997D01*
Y0012052D01*
X0056340Y0012108D01*
X0056395Y0012135D01*
X0056506D01*
X0056562Y0012108D01*
X0056617Y0012052D01*
Y0011997D01*
X0056562Y0011503D02*
X0056617Y0011531D01*
Y0011698D01*
X0056562Y0011725D01*
X0056451D01*
X0056395Y0011670D01*
Y0011503D01*
X0056284D01*
Y0011725D01*
X0056562Y0011316D02*
X0056617Y0011288D01*
Y0011121D01*
X0056562Y0011093D01*
X0056340D01*
X0056284Y0011121D01*
Y0011288D01*
X0056340Y0011316D01*
X0056451Y0010711D02*
Y0010878D01*
X0056506Y0010906D01*
X0056562D01*
X0056617Y0010878D01*
Y0010711D01*
X0056562Y0010683D01*
X0056506D01*
X0056284Y0010794D01*
X0056617Y0010496D02*
Y0010384D01*
Y0010440D02*
X0056284D01*
X0056340Y0010384D01*
X0056562Y0010141D02*
X0056617Y0010113D01*
Y0009947D01*
X0056562Y0009919D01*
X0056340D01*
X0056284Y0009947D01*
Y0010113D01*
X0056340Y0010141D01*
X0056617Y0009731D02*
Y0009620D01*
Y0009676D02*
X0056284D01*
Y0009731D02*
Y0009620D01*
X0056451Y0009154D02*
Y0009321D01*
X0056395Y0009377D01*
X0056340D01*
X0056284Y0009321D01*
Y0009154D01*
X0056617D01*
X0011683Y0017992D02*
X0012016Y0017826D01*
Y0018048D01*
X0011683Y0018236D02*
Y0018458D01*
X0011905Y0018236D01*
X0011960D01*
X0012016Y0018263D01*
Y0018430D01*
X0011960Y0018458D01*
X0011849Y0018729D02*
X0011683Y0018646D01*
X0011849Y0018868D02*
Y0018701D01*
X0011905Y0018646D01*
X0011960D01*
X0012016Y0018701D01*
Y0018868D01*
X0011683D01*
X0009868Y0016092D02*
X0009702Y0016009D01*
X0009868Y0016231D02*
Y0016065D01*
X0009924Y0016009D01*
X0009979D01*
X0010035Y0016065D01*
Y0016231D01*
X0009702D01*
Y0016613D02*
X0009757Y0016641D01*
X0009979D01*
X0010035Y0016613D01*
Y0016447D01*
X0009979Y0016419D01*
X0009757D01*
X0009702Y0016447D01*
Y0016613D01*
Y0016940D02*
X0010035D01*
Y0016829D02*
Y0017051D01*
X0009979Y0017239D02*
X0010035Y0017267D01*
Y0017433D01*
X0009979Y0017461D01*
X0009924D01*
X0009868Y0017433D01*
Y0017267D01*
X0009813Y0017239D01*
X0009757D01*
X0009702Y0017267D01*
Y0017433D01*
X0009757Y0017461D01*
X0009702Y0017649D02*
Y0017760D01*
Y0017704D02*
X0010035D01*
Y0017649D02*
Y0017760D01*
X0009979Y0018003D02*
X0010035Y0018031D01*
Y0018198D01*
X0009979Y0018226D01*
X0009924D01*
X0009868Y0018198D01*
Y0018031D01*
X0009813Y0018003D01*
X0009757D01*
X0009702Y0018031D01*
Y0018198D01*
X0009757Y0018226D01*
X0009868Y0018469D02*
Y0018636D01*
X0009702Y0018413D02*
Y0018636D01*
X0010035D01*
Y0018413D01*
X0009868Y0018907D02*
X0009702Y0018823D01*
X0009868Y0019046D02*
Y0018879D01*
X0009924Y0018823D01*
X0009979D01*
X0010035Y0018879D01*
Y0019046D01*
X0009702D01*
X0048683Y0018048D02*
X0049016Y0017881D01*
Y0018103D01*
X0048683Y0018291D02*
Y0018402D01*
Y0018347D02*
X0049016D01*
X0048960Y0018402D01*
X0048849Y0018729D02*
X0048683Y0018646D01*
X0048849Y0018868D02*
Y0018701D01*
X0048905Y0018646D01*
X0048960D01*
X0049016Y0018701D01*
Y0018868D01*
X0048683D01*
X0046868Y0016092D02*
X0046702Y0016009D01*
X0046868Y0016231D02*
Y0016065D01*
X0046924Y0016009D01*
X0046979D01*
X0047035Y0016065D01*
Y0016231D01*
X0046702D01*
Y0016613D02*
X0046757Y0016641D01*
X0046979D01*
X0047035Y0016613D01*
Y0016447D01*
X0046979Y0016419D01*
X0046757D01*
X0046702Y0016447D01*
Y0016613D01*
Y0016940D02*
X0047035D01*
Y0016829D02*
Y0017051D01*
X0046979Y0017239D02*
X0047035Y0017267D01*
Y0017433D01*
X0046979Y0017461D01*
X0046924D01*
X0046868Y0017433D01*
Y0017267D01*
X0046813Y0017239D01*
X0046757D01*
X0046702Y0017267D01*
Y0017433D01*
X0046757Y0017461D01*
X0046702Y0017649D02*
Y0017760D01*
Y0017704D02*
X0047035D01*
Y0017649D02*
Y0017760D01*
X0046979Y0018003D02*
X0047035Y0018031D01*
Y0018198D01*
X0046979Y0018226D01*
X0046924D01*
X0046868Y0018198D01*
Y0018031D01*
X0046813Y0018003D01*
X0046757D01*
X0046702Y0018031D01*
Y0018198D01*
X0046757Y0018226D01*
X0046868Y0018469D02*
Y0018636D01*
X0046702Y0018413D02*
Y0018636D01*
X0047035D01*
Y0018413D01*
X0046868Y0018907D02*
X0046702Y0018823D01*
X0046868Y0019046D02*
Y0018879D01*
X0046924Y0018823D01*
X0046979D01*
X0047035Y0018879D01*
Y0019046D01*
X0046702D01*
X0031046Y0008633D02*
X0030934D01*
X0030990D02*
Y0008966D01*
X0030934Y0008910D01*
X0030691Y0008633D02*
X0030580D01*
X0030636D02*
Y0008966D01*
X0030580Y0008910D01*
X0030114Y0008688D02*
X0030142Y0008633D01*
X0030309D01*
X0030337Y0008688D01*
Y0008799D01*
X0030281Y0008855D01*
X0030114D01*
Y0008966D01*
X0030337D01*
X0029927Y0008744D02*
X0029704D01*
X0029816Y0008966D01*
X0029871D01*
Y0008633D01*
X0031260Y0011519D02*
X0031038D01*
X0031149Y0011741D01*
X0031205D01*
Y0011408D01*
X0030850Y0011741D02*
Y0011463D01*
X0030823Y0011408D01*
X0030656D01*
X0030628Y0011463D01*
Y0011741D01*
X0013349Y0017853D02*
X0013405Y0017826D01*
X0013460D01*
X0013516Y0017853D01*
Y0018020D01*
X0013460Y0018048D01*
X0013405D01*
X0013349Y0018020D01*
Y0017853D01*
X0013294Y0017826D01*
X0013238D01*
X0013183Y0017853D01*
Y0018020D01*
X0013238Y0018048D01*
X0013294D01*
X0013349Y0018020D01*
X0013183Y0018236D02*
Y0018458D01*
X0013405Y0018236D01*
X0013460D01*
X0013516Y0018263D01*
Y0018430D01*
X0013460Y0018458D01*
X0013349Y0018729D02*
X0013183Y0018646D01*
X0013349Y0018868D02*
Y0018701D01*
X0013405Y0018646D01*
X0013460D01*
X0013516Y0018701D01*
Y0018868D01*
X0013183D01*
X0011368Y0016092D02*
X0011202Y0016009D01*
X0011368Y0016231D02*
Y0016065D01*
X0011424Y0016009D01*
X0011479D01*
X0011535Y0016065D01*
Y0016231D01*
X0011202D01*
Y0016613D02*
X0011257Y0016641D01*
X0011479D01*
X0011535Y0016613D01*
Y0016447D01*
X0011479Y0016419D01*
X0011257D01*
X0011202Y0016447D01*
Y0016613D01*
Y0016940D02*
X0011535D01*
Y0016829D02*
Y0017051D01*
X0011479Y0017239D02*
X0011535Y0017267D01*
Y0017433D01*
X0011479Y0017461D01*
X0011424D01*
X0011368Y0017433D01*
Y0017267D01*
X0011313Y0017239D01*
X0011257D01*
X0011202Y0017267D01*
Y0017433D01*
X0011257Y0017461D01*
X0011202Y0017649D02*
Y0017760D01*
Y0017704D02*
X0011535D01*
Y0017649D02*
Y0017760D01*
X0011479Y0018003D02*
X0011535Y0018031D01*
Y0018198D01*
X0011479Y0018226D01*
X0011424D01*
X0011368Y0018198D01*
Y0018031D01*
X0011313Y0018003D01*
X0011257D01*
X0011202Y0018031D01*
Y0018198D01*
X0011257Y0018226D01*
X0011368Y0018469D02*
Y0018636D01*
X0011202Y0018413D02*
Y0018636D01*
X0011535D01*
Y0018413D01*
X0011368Y0018907D02*
X0011202Y0018823D01*
X0011368Y0019046D02*
Y0018879D01*
X0011424Y0018823D01*
X0011479D01*
X0011535Y0018879D01*
Y0019046D01*
X0011202D01*
X0031238Y0018103D02*
X0031183Y0018048D01*
Y0017937D01*
X0031238Y0017881D01*
X0031294D01*
X0031405Y0017992D01*
X0031516Y0017881D01*
Y0018103D01*
X0031183Y0018291D02*
Y0018402D01*
Y0018347D02*
X0031516D01*
X0031460Y0018402D01*
X0031349Y0018729D02*
X0031183Y0018646D01*
X0031349Y0018868D02*
Y0018701D01*
X0031405Y0018646D01*
X0031460D01*
X0031516Y0018701D01*
Y0018868D01*
X0031183D01*
X0029368Y0016092D02*
X0029202Y0016009D01*
X0029368Y0016231D02*
Y0016065D01*
X0029424Y0016009D01*
X0029479D01*
X0029535Y0016065D01*
Y0016231D01*
X0029202D01*
Y0016613D02*
X0029257Y0016641D01*
X0029479D01*
X0029535Y0016613D01*
Y0016447D01*
X0029479Y0016419D01*
X0029257D01*
X0029202Y0016447D01*
Y0016613D01*
Y0016940D02*
X0029535D01*
Y0016829D02*
Y0017051D01*
X0029479Y0017239D02*
X0029535Y0017267D01*
Y0017433D01*
X0029479Y0017461D01*
X0029424D01*
X0029368Y0017433D01*
Y0017267D01*
X0029313Y0017239D01*
X0029257D01*
X0029202Y0017267D01*
Y0017433D01*
X0029257Y0017461D01*
X0029202Y0017649D02*
Y0017760D01*
Y0017704D02*
X0029535D01*
Y0017649D02*
Y0017760D01*
X0029479Y0018003D02*
X0029535Y0018031D01*
Y0018198D01*
X0029479Y0018226D01*
X0029424D01*
X0029368Y0018198D01*
Y0018031D01*
X0029313Y0018003D01*
X0029257D01*
X0029202Y0018031D01*
Y0018198D01*
X0029257Y0018226D01*
X0029368Y0018469D02*
Y0018636D01*
X0029202Y0018413D02*
Y0018636D01*
X0029535D01*
Y0018413D01*
X0029368Y0018907D02*
X0029202Y0018823D01*
X0029368Y0019046D02*
Y0018879D01*
X0029424Y0018823D01*
X0029479D01*
X0029535Y0018879D01*
Y0019046D01*
X0029202D01*
X0020317Y0017598D02*
X0019984Y0017764D01*
Y0017542D01*
X0020151Y0017271D02*
X0020317Y0017354D01*
X0020151Y0017132D02*
Y0017299D01*
X0020095Y0017354D01*
X0020040D01*
X0019984Y0017299D01*
Y0017132D01*
X0020317D01*
X0022132Y0019908D02*
X0022298Y0019991D01*
X0022132Y0019769D02*
Y0019935D01*
X0022076Y0019991D01*
X0022021D01*
X0021965Y0019935D01*
Y0019769D01*
X0022298D01*
Y0019387D02*
X0022243Y0019359D01*
X0022021D01*
X0021965Y0019387D01*
Y0019553D01*
X0022021Y0019581D01*
X0022243D01*
X0022298Y0019553D01*
Y0019387D01*
Y0019060D02*
X0021965D01*
Y0019171D02*
Y0018949D01*
X0022021Y0018761D02*
X0021965Y0018733D01*
Y0018567D01*
X0022021Y0018539D01*
X0022076D01*
X0022132Y0018567D01*
Y0018733D01*
X0022187Y0018761D01*
X0022243D01*
X0022298Y0018733D01*
Y0018567D01*
X0022243Y0018539D01*
X0022298Y0018351D02*
Y0018240D01*
Y0018296D02*
X0021965D01*
Y0018351D02*
Y0018240D01*
X0022021Y0017997D02*
X0021965Y0017969D01*
Y0017802D01*
X0022021Y0017774D01*
X0022076D01*
X0022132Y0017802D01*
Y0017969D01*
X0022187Y0017997D01*
X0022243D01*
X0022298Y0017969D01*
Y0017802D01*
X0022243Y0017774D01*
X0022132Y0017531D02*
Y0017364D01*
X0022298Y0017587D02*
Y0017364D01*
X0021965D01*
Y0017587D01*
X0022132Y0017093D02*
X0022298Y0017177D01*
X0022132Y0016954D02*
Y0017121D01*
X0022076Y0017177D01*
X0022021D01*
X0021965Y0017121D01*
Y0016954D01*
X0022298D01*
X0023762Y0017542D02*
X0023817Y0017570D01*
Y0017737D01*
X0023762Y0017764D01*
X0023651D01*
X0023595Y0017709D01*
Y0017542D01*
X0023484D01*
Y0017764D01*
X0023651Y0017271D02*
X0023817Y0017354D01*
X0023651Y0017132D02*
Y0017299D01*
X0023595Y0017354D01*
X0023540D01*
X0023484Y0017299D01*
Y0017132D01*
X0023817D01*
X0025632Y0019908D02*
X0025798Y0019991D01*
X0025632Y0019769D02*
Y0019935D01*
X0025576Y0019991D01*
X0025521D01*
X0025465Y0019935D01*
Y0019769D01*
X0025798D01*
Y0019387D02*
X0025743Y0019359D01*
X0025521D01*
X0025465Y0019387D01*
Y0019553D01*
X0025521Y0019581D01*
X0025743D01*
X0025798Y0019553D01*
Y0019387D01*
Y0019060D02*
X0025465D01*
Y0019171D02*
Y0018949D01*
X0025521Y0018761D02*
X0025465Y0018733D01*
Y0018567D01*
X0025521Y0018539D01*
X0025576D01*
X0025632Y0018567D01*
Y0018733D01*
X0025687Y0018761D01*
X0025743D01*
X0025798Y0018733D01*
Y0018567D01*
X0025743Y0018539D01*
X0025798Y0018351D02*
Y0018240D01*
Y0018296D02*
X0025465D01*
Y0018351D02*
Y0018240D01*
X0025521Y0017997D02*
X0025465Y0017969D01*
Y0017802D01*
X0025521Y0017774D01*
X0025576D01*
X0025632Y0017802D01*
Y0017969D01*
X0025687Y0017997D01*
X0025743D01*
X0025798Y0017969D01*
Y0017802D01*
X0025743Y0017774D01*
X0025632Y0017531D02*
Y0017364D01*
X0025798Y0017587D02*
Y0017364D01*
X0025465D01*
Y0017587D01*
X0025632Y0017093D02*
X0025798Y0017177D01*
X0025632Y0016954D02*
Y0017121D01*
X0025576Y0017177D01*
X0025521D01*
X0025465Y0017121D01*
Y0016954D01*
X0025798D01*
X0044183Y0017881D02*
Y0017992D01*
Y0017937D02*
X0044516D01*
X0044460Y0017992D01*
X0044183Y0018236D02*
Y0018458D01*
X0044405Y0018236D01*
X0044460D01*
X0044516Y0018263D01*
Y0018430D01*
X0044460Y0018458D01*
X0044349Y0018729D02*
X0044183Y0018646D01*
X0044349Y0018868D02*
Y0018701D01*
X0044405Y0018646D01*
X0044460D01*
X0044516Y0018701D01*
Y0018868D01*
X0044183D01*
X0042368Y0016092D02*
X0042202Y0016009D01*
X0042368Y0016231D02*
Y0016065D01*
X0042424Y0016009D01*
X0042479D01*
X0042535Y0016065D01*
Y0016231D01*
X0042202D01*
Y0016613D02*
X0042257Y0016641D01*
X0042479D01*
X0042535Y0016613D01*
Y0016447D01*
X0042479Y0016419D01*
X0042257D01*
X0042202Y0016447D01*
Y0016613D01*
Y0016940D02*
X0042535D01*
Y0016829D02*
Y0017051D01*
X0042479Y0017239D02*
X0042535Y0017267D01*
Y0017433D01*
X0042479Y0017461D01*
X0042424D01*
X0042368Y0017433D01*
Y0017267D01*
X0042313Y0017239D01*
X0042257D01*
X0042202Y0017267D01*
Y0017433D01*
X0042257Y0017461D01*
X0042202Y0017649D02*
Y0017760D01*
Y0017704D02*
X0042535D01*
Y0017649D02*
Y0017760D01*
X0042479Y0018003D02*
X0042535Y0018031D01*
Y0018198D01*
X0042479Y0018226D01*
X0042424D01*
X0042368Y0018198D01*
Y0018031D01*
X0042313Y0018003D01*
X0042257D01*
X0042202Y0018031D01*
Y0018198D01*
X0042257Y0018226D01*
X0042368Y0018469D02*
Y0018636D01*
X0042202Y0018413D02*
Y0018636D01*
X0042535D01*
Y0018413D01*
X0042368Y0018907D02*
X0042202Y0018823D01*
X0042368Y0019046D02*
Y0018879D01*
X0042424Y0018823D01*
X0042479D01*
X0042535Y0018879D01*
Y0019046D01*
X0042202D01*
X0047349Y0017909D02*
X0047405Y0017881D01*
X0047460D01*
X0047516Y0017909D01*
Y0018076D01*
X0047460Y0018103D01*
X0047405D01*
X0047349Y0018076D01*
Y0017909D01*
X0047294Y0017881D01*
X0047238D01*
X0047183Y0017909D01*
Y0018076D01*
X0047238Y0018103D01*
X0047294D01*
X0047349Y0018076D01*
X0047183Y0018291D02*
Y0018402D01*
Y0018347D02*
X0047516D01*
X0047460Y0018402D01*
X0047349Y0018729D02*
X0047183Y0018646D01*
X0047349Y0018868D02*
Y0018701D01*
X0047405Y0018646D01*
X0047460D01*
X0047516Y0018701D01*
Y0018868D01*
X0047183D01*
X0045368Y0016092D02*
X0045202Y0016009D01*
X0045368Y0016231D02*
Y0016065D01*
X0045424Y0016009D01*
X0045479D01*
X0045535Y0016065D01*
Y0016231D01*
X0045202D01*
Y0016613D02*
X0045257Y0016641D01*
X0045479D01*
X0045535Y0016613D01*
Y0016447D01*
X0045479Y0016419D01*
X0045257D01*
X0045202Y0016447D01*
Y0016613D01*
Y0016940D02*
X0045535D01*
Y0016829D02*
Y0017051D01*
X0045479Y0017239D02*
X0045535Y0017267D01*
Y0017433D01*
X0045479Y0017461D01*
X0045424D01*
X0045368Y0017433D01*
Y0017267D01*
X0045313Y0017239D01*
X0045257D01*
X0045202Y0017267D01*
Y0017433D01*
X0045257Y0017461D01*
X0045202Y0017649D02*
Y0017760D01*
Y0017704D02*
X0045535D01*
Y0017649D02*
Y0017760D01*
X0045479Y0018003D02*
X0045535Y0018031D01*
Y0018198D01*
X0045479Y0018226D01*
X0045424D01*
X0045368Y0018198D01*
Y0018031D01*
X0045313Y0018003D01*
X0045257D01*
X0045202Y0018031D01*
Y0018198D01*
X0045257Y0018226D01*
X0045368Y0018469D02*
Y0018636D01*
X0045202Y0018413D02*
Y0018636D01*
X0045535D01*
Y0018413D01*
X0045368Y0018907D02*
X0045202Y0018823D01*
X0045368Y0019046D02*
Y0018879D01*
X0045424Y0018823D01*
X0045479D01*
X0045535Y0018879D01*
Y0019046D01*
X0045202D01*
X0053705Y0031558D02*
X0053483D01*
X0053705Y0031780D01*
Y0031835D01*
X0053678Y0031891D01*
X0053511D01*
X0053483Y0031835D01*
X0053295Y0031891D02*
Y0031613D01*
X0053268Y0031558D01*
X0053184Y0031724D01*
Y0031780D02*
Y0031724D01*
X0053101Y0031558D01*
X0053073Y0031613D01*
Y0031891D01*
X0052885Y0031835D02*
X0052858Y0031891D01*
X0052691D01*
X0052663Y0031835D01*
Y0031780D01*
X0052691Y0031724D01*
X0052858D01*
X0052885Y0031669D01*
Y0031613D01*
X0052858Y0031558D01*
X0052691D01*
X0052663Y0031613D01*
X0056255Y0026233D02*
Y0026566D01*
X0056367D02*
X0056144D01*
X0055957Y0026510D02*
X0055929Y0026566D01*
X0055762D01*
X0055734Y0026510D01*
Y0026455D01*
X0055762Y0026399D01*
X0055929D01*
X0055957Y0026344D01*
Y0026288D01*
X0055929Y0026233D01*
X0055762D01*
X0055734Y0026288D01*
X0055324Y0026399D02*
X0055491D01*
X0055547Y0026455D01*
Y0026510D01*
X0055491Y0026566D01*
X0055324D01*
Y0026233D01*
X0055137Y0026510D02*
X0055109Y0026566D01*
X0054942D01*
X0054914Y0026510D01*
Y0026455D01*
X0054942Y0026399D01*
X0055109D01*
X0055137Y0026344D01*
Y0026288D01*
X0055109Y0026233D01*
X0054942D01*
X0054914Y0026288D01*
X0054727Y0026121D02*
X0054504D01*
X0054122Y0026233D02*
Y0026566D01*
X0054094Y0026233D02*
X0054261D01*
X0054317Y0026288D01*
Y0026344D01*
X0054289Y0026399D01*
X0054122D02*
X0054289D01*
X0054317Y0026455D01*
Y0026510D01*
X0054261Y0026566D01*
X0054094D01*
X0053684Y0026399D02*
X0053851D01*
X0053907Y0026455D01*
Y0026510D01*
X0053851Y0026566D01*
X0053684D01*
Y0026233D01*
X0053497Y0026121D02*
X0053274D01*
X0053087Y0026566D02*
Y0026288D01*
X0053059Y0026233D01*
X0052976Y0026399D01*
Y0026455D02*
Y0026399D01*
X0052892Y0026233D01*
X0052864Y0026288D01*
Y0026566D01*
X0052677Y0026510D02*
X0052649Y0026566D01*
X0052482D01*
X0052454Y0026510D01*
Y0026455D01*
X0052482Y0026399D01*
X0052649D01*
X0052677Y0026344D01*
Y0026288D01*
X0052649Y0026233D01*
X0052482D01*
X0052454Y0026288D01*
X0053619Y0019183D02*
X0053508D01*
X0053563D02*
Y0019516D01*
X0053508Y0019460D01*
X0053042Y0019238D02*
X0053098Y0019183D01*
X0053209D01*
X0053264Y0019238D01*
Y0019294D01*
X0053153Y0019405D01*
X0053264Y0019516D01*
X0053042D01*
X0052771Y0019349D02*
X0052854Y0019183D01*
X0052632Y0019349D02*
X0052799D01*
X0052854Y0019405D01*
Y0019460D01*
X0052799Y0019516D01*
X0052632D01*
Y0019183D01*
X0055408Y0017368D02*
X0055491Y0017202D01*
X0055269Y0017368D02*
X0055435D01*
X0055491Y0017424D01*
Y0017479D01*
X0055435Y0017535D01*
X0055269D01*
Y0017202D01*
X0054887D02*
X0054859Y0017257D01*
Y0017479D01*
X0054887Y0017535D01*
X0055053D01*
X0055081Y0017479D01*
Y0017257D01*
X0055053Y0017202D01*
X0054887D01*
X0054560D02*
Y0017535D01*
X0054671D02*
X0054449D01*
X0054261Y0017479D02*
X0054233Y0017535D01*
X0054067D01*
X0054039Y0017479D01*
Y0017424D01*
X0054067Y0017368D01*
X0054233D01*
X0054261Y0017313D01*
Y0017257D01*
X0054233Y0017202D01*
X0054067D01*
X0054039Y0017257D01*
X0053851Y0017202D02*
X0053740D01*
X0053796D02*
Y0017535D01*
X0053851D02*
X0053740D01*
X0053497Y0017479D02*
X0053469Y0017535D01*
X0053302D01*
X0053274Y0017479D01*
Y0017424D01*
X0053302Y0017368D01*
X0053469D01*
X0053497Y0017313D01*
Y0017257D01*
X0053469Y0017202D01*
X0053302D01*
X0053274Y0017257D01*
X0053031Y0017368D02*
X0052864D01*
X0053087Y0017202D02*
X0052864D01*
Y0017535D01*
X0053087D01*
X0052593Y0017368D02*
X0052677Y0017202D01*
X0052454Y0017368D02*
X0052621D01*
X0052677Y0017424D01*
Y0017479D01*
X0052621Y0017535D01*
X0052454D01*
Y0017202D01*
X0013762Y0017542D02*
X0013817Y0017598D01*
Y0017709D01*
X0013762Y0017764D01*
X0013706D01*
X0013595Y0017653D01*
X0013484Y0017764D01*
Y0017542D01*
X0013651Y0017271D02*
X0013817Y0017354D01*
X0013651Y0017132D02*
Y0017299D01*
X0013595Y0017354D01*
X0013540D01*
X0013484Y0017299D01*
Y0017132D01*
X0013817D01*
X0015632Y0019908D02*
X0015798Y0019991D01*
X0015632Y0019769D02*
Y0019935D01*
X0015576Y0019991D01*
X0015521D01*
X0015465Y0019935D01*
Y0019769D01*
X0015798D01*
Y0019387D02*
X0015743Y0019359D01*
X0015521D01*
X0015465Y0019387D01*
Y0019553D01*
X0015521Y0019581D01*
X0015743D01*
X0015798Y0019553D01*
Y0019387D01*
Y0019060D02*
X0015465D01*
Y0019171D02*
Y0018949D01*
X0015521Y0018761D02*
X0015465Y0018733D01*
Y0018567D01*
X0015521Y0018539D01*
X0015576D01*
X0015632Y0018567D01*
Y0018733D01*
X0015687Y0018761D01*
X0015743D01*
X0015798Y0018733D01*
Y0018567D01*
X0015743Y0018539D01*
X0015798Y0018351D02*
Y0018240D01*
Y0018296D02*
X0015465D01*
Y0018351D02*
Y0018240D01*
X0015521Y0017997D02*
X0015465Y0017969D01*
Y0017802D01*
X0015521Y0017774D01*
X0015576D01*
X0015632Y0017802D01*
Y0017969D01*
X0015687Y0017997D01*
X0015743D01*
X0015798Y0017969D01*
Y0017802D01*
X0015743Y0017774D01*
X0015632Y0017531D02*
Y0017364D01*
X0015798Y0017587D02*
Y0017364D01*
X0015465D01*
Y0017587D01*
X0015632Y0017093D02*
X0015798Y0017177D01*
X0015632Y0016954D02*
Y0017121D01*
X0015576Y0017177D01*
X0015521D01*
X0015465Y0017121D01*
Y0016954D01*
X0015798D01*
X0018317Y0017709D02*
Y0017598D01*
Y0017653D02*
X0017984D01*
X0018040Y0017598D01*
X0018151Y0017271D02*
X0018317Y0017354D01*
X0018151Y0017132D02*
Y0017299D01*
X0018095Y0017354D01*
X0018040D01*
X0017984Y0017299D01*
Y0017132D01*
X0018317D01*
X0020132Y0019908D02*
X0020298Y0019991D01*
X0020132Y0019769D02*
Y0019935D01*
X0020076Y0019991D01*
X0020021D01*
X0019965Y0019935D01*
Y0019769D01*
X0020298D01*
Y0019387D02*
X0020243Y0019359D01*
X0020021D01*
X0019965Y0019387D01*
Y0019553D01*
X0020021Y0019581D01*
X0020243D01*
X0020298Y0019553D01*
Y0019387D01*
Y0019060D02*
X0019965D01*
Y0019171D02*
Y0018949D01*
X0020021Y0018761D02*
X0019965Y0018733D01*
Y0018567D01*
X0020021Y0018539D01*
X0020076D01*
X0020132Y0018567D01*
Y0018733D01*
X0020187Y0018761D01*
X0020243D01*
X0020298Y0018733D01*
Y0018567D01*
X0020243Y0018539D01*
X0020298Y0018351D02*
Y0018240D01*
Y0018296D02*
X0019965D01*
Y0018351D02*
Y0018240D01*
X0020021Y0017997D02*
X0019965Y0017969D01*
Y0017802D01*
X0020021Y0017774D01*
X0020076D01*
X0020132Y0017802D01*
Y0017969D01*
X0020187Y0017997D01*
X0020243D01*
X0020298Y0017969D01*
Y0017802D01*
X0020243Y0017774D01*
X0020132Y0017531D02*
Y0017364D01*
X0020298Y0017587D02*
Y0017364D01*
X0019965D01*
Y0017587D01*
X0020132Y0017093D02*
X0020298Y0017177D01*
X0020132Y0016954D02*
Y0017121D01*
X0020076Y0017177D01*
X0020021D01*
X0019965Y0017121D01*
Y0016954D01*
X0020298D01*
X0020046Y0008633D02*
X0019934D01*
X0019990D02*
Y0008966D01*
X0019934Y0008910D01*
X0019691Y0008633D02*
X0019580D01*
X0019636D02*
Y0008966D01*
X0019580Y0008910D01*
X0019114Y0008688D02*
X0019142Y0008633D01*
X0019309D01*
X0019337Y0008688D01*
Y0008799D01*
X0019281Y0008855D01*
X0019114D01*
Y0008966D01*
X0019337D01*
X0018927Y0008744D02*
X0018704D01*
X0018816Y0008966D01*
X0018871D01*
Y0008633D01*
X0020038Y0011463D02*
X0020094Y0011408D01*
X0020205D01*
X0020260Y0011463D01*
Y0011519D01*
X0020149Y0011630D01*
X0020260Y0011741D01*
X0020038D01*
X0019850D02*
Y0011463D01*
X0019823Y0011408D01*
X0019656D01*
X0019628Y0011463D01*
Y0011741D01*
X0036183Y0017937D02*
Y0018048D01*
Y0017992D02*
X0036516D01*
X0036460Y0018048D01*
X0036183Y0018291D02*
Y0018402D01*
Y0018347D02*
X0036516D01*
X0036460Y0018402D01*
X0036349Y0018729D02*
X0036183Y0018646D01*
X0036349Y0018868D02*
Y0018701D01*
X0036405Y0018646D01*
X0036460D01*
X0036516Y0018701D01*
Y0018868D01*
X0036183D01*
X0034368Y0016092D02*
X0034202Y0016009D01*
X0034368Y0016231D02*
Y0016065D01*
X0034424Y0016009D01*
X0034479D01*
X0034535Y0016065D01*
Y0016231D01*
X0034202D01*
Y0016613D02*
X0034257Y0016641D01*
X0034479D01*
X0034535Y0016613D01*
Y0016447D01*
X0034479Y0016419D01*
X0034257D01*
X0034202Y0016447D01*
Y0016613D01*
Y0016940D02*
X0034535D01*
Y0016829D02*
Y0017051D01*
X0034479Y0017239D02*
X0034535Y0017267D01*
Y0017433D01*
X0034479Y0017461D01*
X0034424D01*
X0034368Y0017433D01*
Y0017267D01*
X0034313Y0017239D01*
X0034257D01*
X0034202Y0017267D01*
Y0017433D01*
X0034257Y0017461D01*
X0034202Y0017649D02*
Y0017760D01*
Y0017704D02*
X0034535D01*
Y0017649D02*
Y0017760D01*
X0034479Y0018003D02*
X0034535Y0018031D01*
Y0018198D01*
X0034479Y0018226D01*
X0034424D01*
X0034368Y0018198D01*
Y0018031D01*
X0034313Y0018003D01*
X0034257D01*
X0034202Y0018031D01*
Y0018198D01*
X0034257Y0018226D01*
X0034368Y0018469D02*
Y0018636D01*
X0034202Y0018413D02*
Y0018636D01*
X0034535D01*
Y0018413D01*
X0034368Y0018907D02*
X0034202Y0018823D01*
X0034368Y0019046D02*
Y0018879D01*
X0034424Y0018823D01*
X0034479D01*
X0034535Y0018879D01*
Y0019046D01*
X0034202D01*
X0042046Y0008633D02*
X0041934D01*
X0041990D02*
Y0008966D01*
X0041934Y0008910D01*
X0041691Y0008633D02*
X0041580D01*
X0041636D02*
Y0008966D01*
X0041580Y0008910D01*
X0041114Y0008688D02*
X0041142Y0008633D01*
X0041309D01*
X0041337Y0008688D01*
Y0008799D01*
X0041281Y0008855D01*
X0041114D01*
Y0008966D01*
X0041337D01*
X0040927Y0008744D02*
X0040704D01*
X0040816Y0008966D01*
X0040871D01*
Y0008633D01*
X0042066Y0011574D02*
X0042233D01*
X0042260Y0011519D01*
Y0011463D01*
X0042233Y0011408D01*
X0042066D01*
X0042038Y0011463D01*
Y0011519D01*
X0042149Y0011741D01*
X0041850D02*
Y0011463D01*
X0041823Y0011408D01*
X0041656D01*
X0041628Y0011463D01*
Y0011741D01*
X0053483Y0024613D02*
X0053539Y0024558D01*
X0053650D01*
X0053705Y0024613D01*
Y0024669D01*
X0053594Y0024780D01*
X0053705Y0024891D01*
X0053483D01*
X0053295D02*
Y0024613D01*
X0053268Y0024558D01*
X0053184Y0024724D01*
Y0024780D02*
Y0024724D01*
X0053101Y0024558D01*
X0053073Y0024613D01*
Y0024891D01*
X0052885Y0024835D02*
X0052858Y0024891D01*
X0052691D01*
X0052663Y0024835D01*
Y0024780D01*
X0052691Y0024724D01*
X0052858D01*
X0052885Y0024669D01*
Y0024613D01*
X0052858Y0024558D01*
X0052691D01*
X0052663Y0024613D01*
X0056255Y0019233D02*
Y0019566D01*
X0056367D02*
X0056144D01*
X0055957Y0019510D02*
X0055929Y0019566D01*
X0055762D01*
X0055734Y0019510D01*
Y0019455D01*
X0055762Y0019399D01*
X0055929D01*
X0055957Y0019344D01*
Y0019288D01*
X0055929Y0019233D01*
X0055762D01*
X0055734Y0019288D01*
X0055324Y0019399D02*
X0055491D01*
X0055547Y0019455D01*
Y0019510D01*
X0055491Y0019566D01*
X0055324D01*
Y0019233D01*
X0055137Y0019510D02*
X0055109Y0019566D01*
X0054942D01*
X0054914Y0019510D01*
Y0019455D01*
X0054942Y0019399D01*
X0055109D01*
X0055137Y0019344D01*
Y0019288D01*
X0055109Y0019233D01*
X0054942D01*
X0054914Y0019288D01*
X0054727Y0019121D02*
X0054504D01*
X0054122Y0019233D02*
Y0019566D01*
X0054094Y0019233D02*
X0054261D01*
X0054317Y0019288D01*
Y0019344D01*
X0054289Y0019399D01*
X0054122D02*
X0054289D01*
X0054317Y0019455D01*
Y0019510D01*
X0054261Y0019566D01*
X0054094D01*
X0053684Y0019399D02*
X0053851D01*
X0053907Y0019455D01*
Y0019510D01*
X0053851Y0019566D01*
X0053684D01*
Y0019233D01*
X0053497Y0019121D02*
X0053274D01*
X0053087Y0019566D02*
Y0019288D01*
X0053059Y0019233D01*
X0052976Y0019399D01*
Y0019455D02*
Y0019399D01*
X0052892Y0019233D01*
X0052864Y0019288D01*
Y0019566D01*
X0052677Y0019510D02*
X0052649Y0019566D01*
X0052482D01*
X0052454Y0019510D01*
Y0019455D01*
X0052482Y0019399D01*
X0052649D01*
X0052677Y0019344D01*
Y0019288D01*
X0052649Y0019233D01*
X0052482D01*
X0052454Y0019288D01*
X0007183Y0017826D02*
Y0018048D01*
X0007405Y0017826D01*
X0007460D01*
X0007516Y0017853D01*
Y0018020D01*
X0007460Y0018048D01*
X0007183Y0018236D02*
Y0018458D01*
X0007405Y0018236D01*
X0007460D01*
X0007516Y0018263D01*
Y0018430D01*
X0007460Y0018458D01*
X0007349Y0018729D02*
X0007183Y0018646D01*
X0007349Y0018868D02*
Y0018701D01*
X0007405Y0018646D01*
X0007460D01*
X0007516Y0018701D01*
Y0018868D01*
X0007183D01*
X0005368Y0016092D02*
X0005202Y0016009D01*
X0005368Y0016231D02*
Y0016065D01*
X0005424Y0016009D01*
X0005479D01*
X0005535Y0016065D01*
Y0016231D01*
X0005202D01*
Y0016613D02*
X0005257Y0016641D01*
X0005479D01*
X0005535Y0016613D01*
Y0016447D01*
X0005479Y0016419D01*
X0005257D01*
X0005202Y0016447D01*
Y0016613D01*
Y0016940D02*
X0005535D01*
Y0016829D02*
Y0017051D01*
X0005479Y0017239D02*
X0005535Y0017267D01*
Y0017433D01*
X0005479Y0017461D01*
X0005424D01*
X0005368Y0017433D01*
Y0017267D01*
X0005313Y0017239D01*
X0005257D01*
X0005202Y0017267D01*
Y0017433D01*
X0005257Y0017461D01*
X0005202Y0017649D02*
Y0017760D01*
Y0017704D02*
X0005535D01*
Y0017649D02*
Y0017760D01*
X0005479Y0018003D02*
X0005535Y0018031D01*
Y0018198D01*
X0005479Y0018226D01*
X0005424D01*
X0005368Y0018198D01*
Y0018031D01*
X0005313Y0018003D01*
X0005257D01*
X0005202Y0018031D01*
Y0018198D01*
X0005257Y0018226D01*
X0005368Y0018469D02*
Y0018636D01*
X0005202Y0018413D02*
Y0018636D01*
X0005535D01*
Y0018413D01*
X0005368Y0018907D02*
X0005202Y0018823D01*
X0005368Y0019046D02*
Y0018879D01*
X0005424Y0018823D01*
X0005479D01*
X0005535Y0018879D01*
Y0019046D01*
X0005202D01*
X0053536Y0026183D02*
X0053480Y0026238D01*
X0053452Y0026294D01*
Y0026405D01*
X0053480Y0026460D01*
X0053536Y0026516D01*
X0053591D01*
X0053647Y0026460D01*
X0053674Y0026405D01*
Y0026294D01*
X0053647Y0026238D01*
X0053591Y0026183D01*
X0053536D01*
X0053042Y0026238D02*
X0053098Y0026183D01*
X0053209D01*
X0053264Y0026238D01*
Y0026294D01*
X0053153Y0026405D01*
X0053264Y0026516D01*
X0053042D01*
X0052771Y0026349D02*
X0052854Y0026183D01*
X0052632Y0026349D02*
X0052799D01*
X0052854Y0026405D01*
Y0026460D01*
X0052799Y0026516D01*
X0052632D01*
Y0026183D01*
X0055408Y0024368D02*
X0055491Y0024202D01*
X0055269Y0024368D02*
X0055435D01*
X0055491Y0024424D01*
Y0024479D01*
X0055435Y0024535D01*
X0055269D01*
Y0024202D01*
X0054887D02*
X0054859Y0024257D01*
Y0024479D01*
X0054887Y0024535D01*
X0055053D01*
X0055081Y0024479D01*
Y0024257D01*
X0055053Y0024202D01*
X0054887D01*
X0054560D02*
Y0024535D01*
X0054671D02*
X0054449D01*
X0054261Y0024479D02*
X0054233Y0024535D01*
X0054067D01*
X0054039Y0024479D01*
Y0024424D01*
X0054067Y0024368D01*
X0054233D01*
X0054261Y0024313D01*
Y0024257D01*
X0054233Y0024202D01*
X0054067D01*
X0054039Y0024257D01*
X0053851Y0024202D02*
X0053740D01*
X0053796D02*
Y0024535D01*
X0053851D02*
X0053740D01*
X0053497Y0024479D02*
X0053469Y0024535D01*
X0053302D01*
X0053274Y0024479D01*
Y0024424D01*
X0053302Y0024368D01*
X0053469D01*
X0053497Y0024313D01*
Y0024257D01*
X0053469Y0024202D01*
X0053302D01*
X0053274Y0024257D01*
X0053031Y0024368D02*
X0052864D01*
X0053087Y0024202D02*
X0052864D01*
Y0024535D01*
X0053087D01*
X0052593Y0024368D02*
X0052677Y0024202D01*
X0052454Y0024368D02*
X0052621D01*
X0052677Y0024424D01*
Y0024479D01*
X0052621Y0024535D01*
X0052454D01*
Y0024202D01*
X0029849Y0018263D02*
Y0018430D01*
X0029905Y0018458D01*
X0029960D01*
X0030016Y0018430D01*
Y0018263D01*
X0029960Y0018236D01*
X0029905D01*
X0029683Y0018347D01*
X0029849Y0018729D02*
X0029683Y0018646D01*
X0029849Y0018868D02*
Y0018701D01*
X0029905Y0018646D01*
X0029960D01*
X0030016Y0018701D01*
Y0018868D01*
X0029683D01*
X0027868Y0016092D02*
X0027702Y0016009D01*
X0027868Y0016231D02*
Y0016065D01*
X0027924Y0016009D01*
X0027979D01*
X0028035Y0016065D01*
Y0016231D01*
X0027702D01*
Y0016613D02*
X0027757Y0016641D01*
X0027979D01*
X0028035Y0016613D01*
Y0016447D01*
X0027979Y0016419D01*
X0027757D01*
X0027702Y0016447D01*
Y0016613D01*
Y0016940D02*
X0028035D01*
Y0016829D02*
Y0017051D01*
X0027979Y0017239D02*
X0028035Y0017267D01*
Y0017433D01*
X0027979Y0017461D01*
X0027924D01*
X0027868Y0017433D01*
Y0017267D01*
X0027813Y0017239D01*
X0027757D01*
X0027702Y0017267D01*
Y0017433D01*
X0027757Y0017461D01*
X0027702Y0017649D02*
Y0017760D01*
Y0017704D02*
X0028035D01*
Y0017649D02*
Y0017760D01*
X0027979Y0018003D02*
X0028035Y0018031D01*
Y0018198D01*
X0027979Y0018226D01*
X0027924D01*
X0027868Y0018198D01*
Y0018031D01*
X0027813Y0018003D01*
X0027757D01*
X0027702Y0018031D01*
Y0018198D01*
X0027757Y0018226D01*
X0027868Y0018469D02*
Y0018636D01*
X0027702Y0018413D02*
Y0018636D01*
X0028035D01*
Y0018413D01*
X0027868Y0018907D02*
X0027702Y0018823D01*
X0027868Y0019046D02*
Y0018879D01*
X0027924Y0018823D01*
X0027979D01*
X0028035Y0018879D01*
Y0019046D01*
X0027702D01*
X0045849Y0017909D02*
Y0018076D01*
X0045905Y0018103D01*
X0045960D01*
X0046016Y0018076D01*
Y0017909D01*
X0045960Y0017881D01*
X0045905D01*
X0045683Y0017992D01*
Y0018291D02*
Y0018402D01*
Y0018347D02*
X0046016D01*
X0045960Y0018402D01*
X0045849Y0018729D02*
X0045683Y0018646D01*
X0045849Y0018868D02*
Y0018701D01*
X0045905Y0018646D01*
X0045960D01*
X0046016Y0018701D01*
Y0018868D01*
X0045683D01*
X0043868Y0016092D02*
X0043702Y0016009D01*
X0043868Y0016231D02*
Y0016065D01*
X0043924Y0016009D01*
X0043979D01*
X0044035Y0016065D01*
Y0016231D01*
X0043702D01*
Y0016613D02*
X0043757Y0016641D01*
X0043979D01*
X0044035Y0016613D01*
Y0016447D01*
X0043979Y0016419D01*
X0043757D01*
X0043702Y0016447D01*
Y0016613D01*
Y0016940D02*
X0044035D01*
Y0016829D02*
Y0017051D01*
X0043979Y0017239D02*
X0044035Y0017267D01*
Y0017433D01*
X0043979Y0017461D01*
X0043924D01*
X0043868Y0017433D01*
Y0017267D01*
X0043813Y0017239D01*
X0043757D01*
X0043702Y0017267D01*
Y0017433D01*
X0043757Y0017461D01*
X0043702Y0017649D02*
Y0017760D01*
Y0017704D02*
X0044035D01*
Y0017649D02*
Y0017760D01*
X0043979Y0018003D02*
X0044035Y0018031D01*
Y0018198D01*
X0043979Y0018226D01*
X0043924D01*
X0043868Y0018198D01*
Y0018031D01*
X0043813Y0018003D01*
X0043757D01*
X0043702Y0018031D01*
Y0018198D01*
X0043757Y0018226D01*
X0043868Y0018469D02*
Y0018636D01*
X0043702Y0018413D02*
Y0018636D01*
X0044035D01*
Y0018413D01*
X0043868Y0018907D02*
X0043702Y0018823D01*
X0043868Y0019046D02*
Y0018879D01*
X0043924Y0018823D01*
X0043979D01*
X0044035Y0018879D01*
Y0019046D01*
X0043702D01*
X0009046Y0008633D02*
X0008934D01*
X0008990D02*
Y0008966D01*
X0008934Y0008910D01*
X0008691Y0008633D02*
X0008580D01*
X0008636D02*
Y0008966D01*
X0008580Y0008910D01*
X0008114Y0008688D02*
X0008142Y0008633D01*
X0008309D01*
X0008337Y0008688D01*
Y0008799D01*
X0008281Y0008855D01*
X0008114D01*
Y0008966D01*
X0008337D01*
X0007927Y0008744D02*
X0007704D01*
X0007816Y0008966D01*
X0007871D01*
Y0008633D01*
X0009038Y0011463D02*
X0009066Y0011408D01*
X0009233D01*
X0009260Y0011463D01*
Y0011574D01*
X0009205Y0011630D01*
X0009038D01*
Y0011741D01*
X0009260D01*
X0008850D02*
Y0011463D01*
X0008823Y0011408D01*
X0008656D01*
X0008628Y0011463D01*
Y0011741D01*
X0053647Y0033349D02*
X0053480D01*
X0053452Y0033405D01*
Y0033460D01*
X0053480Y0033516D01*
X0053647D01*
X0053674Y0033460D01*
Y0033405D01*
X0053563Y0033183D01*
X0053264D02*
X0053042D01*
X0053264Y0033405D01*
Y0033460D01*
X0053237Y0033516D01*
X0053070D01*
X0053042Y0033460D01*
X0052771Y0033349D02*
X0052854Y0033183D01*
X0052632Y0033349D02*
X0052799D01*
X0052854Y0033405D01*
Y0033460D01*
X0052799Y0033516D01*
X0052632D01*
Y0033183D01*
X0055408Y0031368D02*
X0055491Y0031202D01*
X0055269Y0031368D02*
X0055435D01*
X0055491Y0031424D01*
Y0031479D01*
X0055435Y0031535D01*
X0055269D01*
Y0031202D01*
X0054887D02*
X0054859Y0031257D01*
Y0031479D01*
X0054887Y0031535D01*
X0055053D01*
X0055081Y0031479D01*
Y0031257D01*
X0055053Y0031202D01*
X0054887D01*
X0054560D02*
Y0031535D01*
X0054671D02*
X0054449D01*
X0054261Y0031479D02*
X0054233Y0031535D01*
X0054067D01*
X0054039Y0031479D01*
Y0031424D01*
X0054067Y0031368D01*
X0054233D01*
X0054261Y0031313D01*
Y0031257D01*
X0054233Y0031202D01*
X0054067D01*
X0054039Y0031257D01*
X0053851Y0031202D02*
X0053740D01*
X0053796D02*
Y0031535D01*
X0053851D02*
X0053740D01*
X0053497Y0031479D02*
X0053469Y0031535D01*
X0053302D01*
X0053274Y0031479D01*
Y0031424D01*
X0053302Y0031368D01*
X0053469D01*
X0053497Y0031313D01*
Y0031257D01*
X0053469Y0031202D01*
X0053302D01*
X0053274Y0031257D01*
X0053031Y0031368D02*
X0052864D01*
X0053087Y0031202D02*
X0052864D01*
Y0031535D01*
X0053087D01*
X0052593Y0031368D02*
X0052677Y0031202D01*
X0052454Y0031368D02*
X0052621D01*
X0052677Y0031424D01*
Y0031479D01*
X0052621Y0031535D01*
X0052454D01*
Y0031202D01*
X0053650Y0038558D02*
X0053539D01*
X0053594D02*
Y0038891D01*
X0053539Y0038835D01*
X0053295Y0038891D02*
Y0038613D01*
X0053268Y0038558D01*
X0053184Y0038724D01*
Y0038780D02*
Y0038724D01*
X0053101Y0038558D01*
X0053073Y0038613D01*
Y0038891D01*
X0052885Y0038835D02*
X0052858Y0038891D01*
X0052691D01*
X0052663Y0038835D01*
Y0038780D01*
X0052691Y0038724D01*
X0052858D01*
X0052885Y0038669D01*
Y0038613D01*
X0052858Y0038558D01*
X0052691D01*
X0052663Y0038613D01*
X0056255Y0033233D02*
Y0033566D01*
X0056367D02*
X0056144D01*
X0055957Y0033510D02*
X0055929Y0033566D01*
X0055762D01*
X0055734Y0033510D01*
Y0033455D01*
X0055762Y0033399D01*
X0055929D01*
X0055957Y0033344D01*
Y0033288D01*
X0055929Y0033233D01*
X0055762D01*
X0055734Y0033288D01*
X0055324Y0033399D02*
X0055491D01*
X0055547Y0033455D01*
Y0033510D01*
X0055491Y0033566D01*
X0055324D01*
Y0033233D01*
X0055137Y0033510D02*
X0055109Y0033566D01*
X0054942D01*
X0054914Y0033510D01*
Y0033455D01*
X0054942Y0033399D01*
X0055109D01*
X0055137Y0033344D01*
Y0033288D01*
X0055109Y0033233D01*
X0054942D01*
X0054914Y0033288D01*
X0054727Y0033121D02*
X0054504D01*
X0054122Y0033233D02*
Y0033566D01*
X0054094Y0033233D02*
X0054261D01*
X0054317Y0033288D01*
Y0033344D01*
X0054289Y0033399D01*
X0054122D02*
X0054289D01*
X0054317Y0033455D01*
Y0033510D01*
X0054261Y0033566D01*
X0054094D01*
X0053684Y0033399D02*
X0053851D01*
X0053907Y0033455D01*
Y0033510D01*
X0053851Y0033566D01*
X0053684D01*
Y0033233D01*
X0053497Y0033121D02*
X0053274D01*
X0053087Y0033566D02*
Y0033288D01*
X0053059Y0033233D01*
X0052976Y0033399D01*
Y0033455D02*
Y0033399D01*
X0052892Y0033233D01*
X0052864Y0033288D01*
Y0033566D01*
X0052677Y0033510D02*
X0052649Y0033566D01*
X0052482D01*
X0052454Y0033510D01*
Y0033455D01*
X0052482Y0033399D01*
X0052649D01*
X0052677Y0033344D01*
Y0033288D01*
X0052649Y0033233D01*
X0052482D01*
X0052454Y0033288D01*
X0039713Y0031269D02*
X0039490D01*
X0039602Y0031491D01*
X0039657D01*
Y0031158D01*
X0039108Y0031269D02*
Y0031213D01*
X0039136Y0031158D01*
X0039247D01*
X0039275Y0031213D01*
Y0031491D01*
X0039303D02*
X0039192D01*
X0032794Y0017881D02*
Y0018103D01*
X0033016Y0017992D01*
Y0017937D01*
X0032683D01*
Y0018291D02*
Y0018402D01*
Y0018347D02*
X0033016D01*
X0032960Y0018402D01*
X0032849Y0018729D02*
X0032683Y0018646D01*
X0032849Y0018868D02*
Y0018701D01*
X0032905Y0018646D01*
X0032960D01*
X0033016Y0018701D01*
Y0018868D01*
X0032683D01*
X0030868Y0016092D02*
X0030702Y0016009D01*
X0030868Y0016231D02*
Y0016065D01*
X0030924Y0016009D01*
X0030979D01*
X0031035Y0016065D01*
Y0016231D01*
X0030702D01*
Y0016613D02*
X0030757Y0016641D01*
X0030979D01*
X0031035Y0016613D01*
Y0016447D01*
X0030979Y0016419D01*
X0030757D01*
X0030702Y0016447D01*
Y0016613D01*
Y0016940D02*
X0031035D01*
Y0016829D02*
Y0017051D01*
X0030979Y0017239D02*
X0031035Y0017267D01*
Y0017433D01*
X0030979Y0017461D01*
X0030924D01*
X0030868Y0017433D01*
Y0017267D01*
X0030813Y0017239D01*
X0030757D01*
X0030702Y0017267D01*
Y0017433D01*
X0030757Y0017461D01*
X0030702Y0017649D02*
Y0017760D01*
Y0017704D02*
X0031035D01*
Y0017649D02*
Y0017760D01*
X0030979Y0018003D02*
X0031035Y0018031D01*
Y0018198D01*
X0030979Y0018226D01*
X0030924D01*
X0030868Y0018198D01*
Y0018031D01*
X0030813Y0018003D01*
X0030757D01*
X0030702Y0018031D01*
Y0018198D01*
X0030757Y0018226D01*
X0030868Y0018469D02*
Y0018636D01*
X0030702Y0018413D02*
Y0018636D01*
X0031035D01*
Y0018413D01*
X0030868Y0018907D02*
X0030702Y0018823D01*
X0030868Y0019046D02*
Y0018879D01*
X0030924Y0018823D01*
X0030979D01*
X0031035Y0018879D01*
Y0019046D01*
X0030702D01*
X0008738Y0018048D02*
X0008683Y0017992D01*
Y0017881D01*
X0008738Y0017826D01*
X0008794D01*
X0008905Y0017937D01*
X0009016Y0017826D01*
Y0018048D01*
X0008683Y0018236D02*
Y0018458D01*
X0008905Y0018236D01*
X0008960D01*
X0009016Y0018263D01*
Y0018430D01*
X0008960Y0018458D01*
X0008849Y0018729D02*
X0008683Y0018646D01*
X0008849Y0018868D02*
Y0018701D01*
X0008905Y0018646D01*
X0008960D01*
X0009016Y0018701D01*
Y0018868D01*
X0008683D01*
X0006868Y0016092D02*
X0006702Y0016009D01*
X0006868Y0016231D02*
Y0016065D01*
X0006924Y0016009D01*
X0006979D01*
X0007035Y0016065D01*
Y0016231D01*
X0006702D01*
Y0016613D02*
X0006757Y0016641D01*
X0006979D01*
X0007035Y0016613D01*
Y0016447D01*
X0006979Y0016419D01*
X0006757D01*
X0006702Y0016447D01*
Y0016613D01*
Y0016940D02*
X0007035D01*
Y0016829D02*
Y0017051D01*
X0006979Y0017239D02*
X0007035Y0017267D01*
Y0017433D01*
X0006979Y0017461D01*
X0006924D01*
X0006868Y0017433D01*
Y0017267D01*
X0006813Y0017239D01*
X0006757D01*
X0006702Y0017267D01*
Y0017433D01*
X0006757Y0017461D01*
X0006702Y0017649D02*
Y0017760D01*
Y0017704D02*
X0007035D01*
Y0017649D02*
Y0017760D01*
X0006979Y0018003D02*
X0007035Y0018031D01*
Y0018198D01*
X0006979Y0018226D01*
X0006924D01*
X0006868Y0018198D01*
Y0018031D01*
X0006813Y0018003D01*
X0006757D01*
X0006702Y0018031D01*
Y0018198D01*
X0006757Y0018226D01*
X0006868Y0018469D02*
Y0018636D01*
X0006702Y0018413D02*
Y0018636D01*
X0007035D01*
Y0018413D01*
X0006868Y0018907D02*
X0006702Y0018823D01*
X0006868Y0019046D02*
Y0018879D01*
X0006924Y0018823D01*
X0006979D01*
X0007035Y0018879D01*
Y0019046D01*
X0006702D01*
X0061584Y0022808D02*
X0061473D01*
X0061528D02*
Y0023141D01*
X0061473Y0023085D01*
X0061230Y0022863D02*
X0061202Y0022808D01*
X0061035D01*
X0061007Y0022863D01*
Y0023085D01*
X0061035Y0023141D01*
X0061202D01*
X0061230Y0023085D01*
X0064568Y0019993D02*
X0064651Y0019827D01*
X0064429Y0019993D02*
X0064595D01*
X0064651Y0020049D01*
Y0020104D01*
X0064595Y0020160D01*
X0064429D01*
Y0019827D01*
X0064047D02*
X0064019Y0019882D01*
Y0020104D01*
X0064047Y0020160D01*
X0064213D01*
X0064241Y0020104D01*
Y0019882D01*
X0064213Y0019827D01*
X0064047D01*
X0063720D02*
Y0020160D01*
X0063831D02*
X0063609D01*
X0063421Y0019827D02*
X0063310D01*
X0063366D02*
Y0020160D01*
X0063421D02*
X0063310D01*
X0063067Y0019882D02*
X0063039Y0019827D01*
X0062872D01*
X0062844Y0019882D01*
Y0020104D01*
X0062872Y0020160D01*
X0063039D01*
X0063067Y0020104D01*
X0062657Y0019938D02*
X0062434D01*
X0062657Y0019827D02*
Y0019993D01*
X0062573Y0020160D01*
X0062518D01*
X0062434Y0019993D01*
Y0019827D01*
X0062024Y0019993D02*
X0062191D01*
X0062247Y0020049D01*
Y0020104D01*
X0062191Y0020160D01*
X0062024D01*
Y0019827D01*
X0061837Y0019938D02*
X0061614D01*
X0061837Y0019827D02*
Y0019993D01*
X0061753Y0020160D01*
X0061698D01*
X0061614Y0019993D01*
Y0019827D01*
X0061427Y0019882D02*
X0061399Y0019827D01*
X0061232D01*
X0061204Y0019882D01*
Y0020104D01*
X0061232Y0020160D01*
X0061399D01*
X0061427Y0020104D01*
X0041457Y0026255D02*
X0041346Y0026033D01*
X0041290Y0025922D02*
X0041346Y0026033D01*
X0041235Y0026255D01*
X0040881D02*
X0040992D01*
X0041019Y0026199D01*
Y0026088D01*
X0041047Y0026033D01*
X0040853D01*
X0040825Y0026088D01*
X0040853Y0026144D01*
X0041019D01*
X0040637Y0026033D02*
X0040526D01*
X0040582D02*
Y0026366D01*
X0040526D01*
X0040116Y0025922D02*
Y0026255D01*
X0040283D01*
X0040311Y0026199D01*
Y0026088D01*
X0040283Y0026033D01*
X0040116D01*
X0039901Y0026255D02*
X0039734D01*
X0039706Y0026199D01*
X0039734Y0026144D01*
X0039901D01*
X0039928Y0026088D01*
X0039901Y0026033D01*
X0039734D01*
X0039462Y0026366D03*
X0039463D01*
X0039462D01*
X0039518Y0026033D02*
X0039407D01*
X0039463D02*
Y0026255D01*
X0039407D01*
X0038997Y0026033D02*
Y0026366D01*
X0038969Y0026033D02*
X0039136D01*
X0039192Y0026144D01*
Y0026255D01*
X0039136Y0026366D01*
X0038969D01*
X0006490Y0031213D02*
X0006518Y0031158D01*
X0006685D01*
X0006713Y0031213D01*
Y0031324D01*
X0006657Y0031380D01*
X0006490D01*
Y0031491D01*
X0006713D01*
X0006108Y0031269D02*
Y0031213D01*
X0006136Y0031158D01*
X0006247D01*
X0006275Y0031213D01*
Y0031491D01*
X0006303D02*
X0006192D01*
X0021651Y0017570D02*
Y0017737D01*
X0021706Y0017764D01*
X0021762D01*
X0021817Y0017737D01*
Y0017570D01*
X0021762Y0017542D01*
X0021706D01*
X0021484Y0017653D01*
X0021651Y0017271D02*
X0021817Y0017354D01*
X0021651Y0017132D02*
Y0017299D01*
X0021595Y0017354D01*
X0021540D01*
X0021484Y0017299D01*
Y0017132D01*
X0021817D01*
X0023632Y0019908D02*
X0023798Y0019991D01*
X0023632Y0019769D02*
Y0019935D01*
X0023576Y0019991D01*
X0023521D01*
X0023465Y0019935D01*
Y0019769D01*
X0023798D01*
Y0019387D02*
X0023743Y0019359D01*
X0023521D01*
X0023465Y0019387D01*
Y0019553D01*
X0023521Y0019581D01*
X0023743D01*
X0023798Y0019553D01*
Y0019387D01*
Y0019060D02*
X0023465D01*
Y0019171D02*
Y0018949D01*
X0023521Y0018761D02*
X0023465Y0018733D01*
Y0018567D01*
X0023521Y0018539D01*
X0023576D01*
X0023632Y0018567D01*
Y0018733D01*
X0023687Y0018761D01*
X0023743D01*
X0023798Y0018733D01*
Y0018567D01*
X0023743Y0018539D01*
X0023798Y0018351D02*
Y0018240D01*
Y0018296D02*
X0023465D01*
Y0018351D02*
Y0018240D01*
X0023521Y0017997D02*
X0023465Y0017969D01*
Y0017802D01*
X0023521Y0017774D01*
X0023576D01*
X0023632Y0017802D01*
Y0017969D01*
X0023687Y0017997D01*
X0023743D01*
X0023798Y0017969D01*
Y0017802D01*
X0023743Y0017774D01*
X0023632Y0017531D02*
Y0017364D01*
X0023798Y0017587D02*
Y0017364D01*
X0023465D01*
Y0017587D01*
X0023632Y0017093D02*
X0023798Y0017177D01*
X0023632Y0016954D02*
Y0017121D01*
X0023576Y0017177D01*
X0023521D01*
X0023465Y0017121D01*
Y0016954D01*
X0023798D01*
X0034683Y0017881D02*
Y0018103D01*
X0034905Y0017881D01*
X0034960D01*
X0035016Y0017909D01*
Y0018076D01*
X0034960Y0018103D01*
X0034683Y0018291D02*
Y0018402D01*
Y0018347D02*
X0035016D01*
X0034960Y0018402D01*
X0034849Y0018729D02*
X0034683Y0018646D01*
X0034849Y0018868D02*
Y0018701D01*
X0034905Y0018646D01*
X0034960D01*
X0035016Y0018701D01*
Y0018868D01*
X0034683D01*
X0032868Y0016092D02*
X0032702Y0016009D01*
X0032868Y0016231D02*
Y0016065D01*
X0032924Y0016009D01*
X0032979D01*
X0033035Y0016065D01*
Y0016231D01*
X0032702D01*
Y0016613D02*
X0032757Y0016641D01*
X0032979D01*
X0033035Y0016613D01*
Y0016447D01*
X0032979Y0016419D01*
X0032757D01*
X0032702Y0016447D01*
Y0016613D01*
Y0016940D02*
X0033035D01*
Y0016829D02*
Y0017051D01*
X0032979Y0017239D02*
X0033035Y0017267D01*
Y0017433D01*
X0032979Y0017461D01*
X0032924D01*
X0032868Y0017433D01*
Y0017267D01*
X0032813Y0017239D01*
X0032757D01*
X0032702Y0017267D01*
Y0017433D01*
X0032757Y0017461D01*
X0032702Y0017649D02*
Y0017760D01*
Y0017704D02*
X0033035D01*
Y0017649D02*
Y0017760D01*
X0032979Y0018003D02*
X0033035Y0018031D01*
Y0018198D01*
X0032979Y0018226D01*
X0032924D01*
X0032868Y0018198D01*
Y0018031D01*
X0032813Y0018003D01*
X0032757D01*
X0032702Y0018031D01*
Y0018198D01*
X0032757Y0018226D01*
X0032868Y0018469D02*
Y0018636D01*
X0032702Y0018413D02*
Y0018636D01*
X0033035D01*
Y0018413D01*
X0032868Y0018907D02*
X0032702Y0018823D01*
X0032868Y0019046D02*
Y0018879D01*
X0032924Y0018823D01*
X0032979D01*
X0033035Y0018879D01*
Y0019046D01*
X0032702D01*
X0039849Y0018076D02*
Y0017909D01*
X0039794Y0017881D01*
X0039738D01*
X0039683Y0017909D01*
Y0018076D01*
X0039738Y0018103D01*
X0039794D01*
X0040016Y0017992D01*
X0039683Y0018291D02*
Y0018402D01*
Y0018347D02*
X0040016D01*
X0039960Y0018402D01*
X0039849Y0018729D02*
X0039683Y0018646D01*
X0039849Y0018868D02*
Y0018701D01*
X0039905Y0018646D01*
X0039960D01*
X0040016Y0018701D01*
Y0018868D01*
X0039683D01*
X0037868Y0016092D02*
X0037702Y0016009D01*
X0037868Y0016231D02*
Y0016065D01*
X0037924Y0016009D01*
X0037979D01*
X0038035Y0016065D01*
Y0016231D01*
X0037702D01*
Y0016613D02*
X0037757Y0016641D01*
X0037979D01*
X0038035Y0016613D01*
Y0016447D01*
X0037979Y0016419D01*
X0037757D01*
X0037702Y0016447D01*
Y0016613D01*
Y0016940D02*
X0038035D01*
Y0016829D02*
Y0017051D01*
X0037979Y0017239D02*
X0038035Y0017267D01*
Y0017433D01*
X0037979Y0017461D01*
X0037924D01*
X0037868Y0017433D01*
Y0017267D01*
X0037813Y0017239D01*
X0037757D01*
X0037702Y0017267D01*
Y0017433D01*
X0037757Y0017461D01*
X0037702Y0017649D02*
Y0017760D01*
Y0017704D02*
X0038035D01*
Y0017649D02*
Y0017760D01*
X0037979Y0018003D02*
X0038035Y0018031D01*
Y0018198D01*
X0037979Y0018226D01*
X0037924D01*
X0037868Y0018198D01*
Y0018031D01*
X0037813Y0018003D01*
X0037757D01*
X0037702Y0018031D01*
Y0018198D01*
X0037757Y0018226D01*
X0037868Y0018469D02*
Y0018636D01*
X0037702Y0018413D02*
Y0018636D01*
X0038035D01*
Y0018413D01*
X0037868Y0018907D02*
X0037702Y0018823D01*
X0037868Y0019046D02*
Y0018879D01*
X0037924Y0018823D01*
X0037979D01*
X0038035Y0018879D01*
Y0019046D01*
X0037702D01*
X0004294Y0017826D02*
Y0018048D01*
X0004516Y0017937D01*
Y0017881D01*
X0004183D01*
Y0018236D02*
Y0018458D01*
X0004405Y0018236D01*
X0004460D01*
X0004516Y0018263D01*
Y0018430D01*
X0004460Y0018458D01*
X0004349Y0018729D02*
X0004183Y0018646D01*
X0004349Y0018868D02*
Y0018701D01*
X0004405Y0018646D01*
X0004460D01*
X0004516Y0018701D01*
Y0018868D01*
X0004183D01*
X0003500Y0009250D02*
Y0010250D01*
X0002500D01*
Y0007750D01*
X0003500D01*
Y0009250D01*
X0003000Y0007750D02*
Y0007500D01*
X0058000Y0005750D02*
X0054000D01*
Y0004250D01*
X0058000D01*
Y0005750D01*
X0005000Y0006000D02*
X-0001500D01*
Y0001000D01*
X0005000D01*
Y0006000D01*
X0026000Y0016500D02*
Y0016750D01*
X0025500Y0019250D02*
Y0016750D01*
X0026000D01*
X0026500D01*
Y0019250D01*
X0026000D01*
X0025500D01*
X0026000Y0019500D02*
Y0019250D01*
X0016100Y0026900D02*
Y0037000D01*
X0025000D01*
Y0024000D01*
X0016100D01*
Y0026900D01*
X0016350D01*
Y0027900D01*
X0016100D01*
Y0026900D01*
X0060531Y0036401D02*
X0060758Y0036742D01*
X0061099Y0036969D01*
X0061500Y0037049D01*
X0061901Y0036969D01*
X0062242Y0036742D01*
X0062469Y0036401D01*
Y0035599D02*
X0062242Y0035258D01*
X0062250Y0035250D02*
X0060766D01*
X0060758Y0035258D01*
X0060531Y0035599D01*
X0027100Y0026900D02*
Y0037000D01*
X0036000D01*
Y0024000D01*
X0027100D01*
Y0026900D01*
X0027350D01*
Y0027900D01*
X0027100D01*
Y0026900D01*
X0038100D02*
Y0037000D01*
X0047000D01*
Y0024000D01*
X0038100D01*
Y0026900D01*
X0038350D01*
Y0027900D01*
X0038100D01*
Y0026900D01*
X0005100D02*
Y0037000D01*
X0014000D01*
Y0024000D01*
X0005100D01*
Y0026900D01*
X0005350D01*
Y0027900D01*
X0005100D01*
Y0026900D01*
X0003000Y0019250D02*
Y0016750D01*
X0003500D01*
X0004000D01*
Y0019250D01*
X0003500D01*
X0003000D01*
X0003500Y0019500D02*
Y0019250D01*
X0040500Y0016500D02*
Y0016750D01*
X0040000Y0019250D02*
Y0016750D01*
X0040500D01*
X0041000D01*
Y0019250D01*
X0040500D01*
X0040000D01*
X0040500Y0019500D02*
Y0019250D01*
X0016000Y0019500D02*
Y0019250D01*
X0016500Y0016750D02*
Y0019250D01*
X0016000D01*
X0015500D01*
Y0016750D01*
X0016000D01*
X0016500D01*
X0016000Y0016500D02*
Y0016750D01*
X0017500Y0019500D02*
Y0019250D01*
X0018000Y0016750D02*
Y0019250D01*
X0017500D01*
X0017000D01*
Y0016750D01*
X0017500D01*
X0018000D01*
X0017500Y0016500D02*
Y0016750D01*
X0005000Y0016500D02*
Y0016750D01*
X0004500Y0019250D02*
Y0016750D01*
X0005000D01*
X0005500D01*
Y0019250D01*
X0005000D01*
X0004500D01*
X0005000Y0019500D02*
Y0019250D01*
X0037000Y0016500D02*
Y0016750D01*
X0036500Y0019250D02*
Y0016750D01*
X0037000D01*
X0037500D01*
Y0019250D01*
X0037000D01*
X0036500D01*
X0037000Y0019500D02*
Y0019250D01*
X0009500Y0016500D02*
Y0016750D01*
X0009000Y0019250D02*
Y0016750D01*
X0009500D01*
X0010000D01*
Y0019250D01*
X0009500D01*
X0009000D01*
X0009500Y0019500D02*
Y0019250D01*
X0042000Y0016500D02*
Y0016750D01*
X0041500Y0019250D02*
Y0016750D01*
X0042000D01*
X0042500D01*
Y0019250D01*
X0042000D01*
X0041500D01*
X0042000Y0019500D02*
Y0019250D01*
X0027500Y0016500D02*
Y0016750D01*
X0027000Y0019250D02*
Y0016750D01*
X0027500D01*
X0028000D01*
Y0019250D01*
X0027500D01*
X0027000D01*
X0027500Y0019500D02*
Y0019250D01*
X0055500Y0006500D02*
X0055000D01*
Y0013500D01*
X0057000D01*
Y0006500D01*
X0055500D01*
Y0006750D01*
X0056500D01*
Y0006500D01*
X0011000Y0016500D02*
Y0016750D01*
X0010500Y0019250D02*
Y0016750D01*
X0011000D01*
X0011500D01*
Y0019250D01*
X0011000D01*
X0010500D01*
X0011000Y0019500D02*
Y0019250D01*
X0048000Y0016500D02*
Y0016750D01*
X0047500Y0019250D02*
Y0016750D01*
X0048000D01*
X0048500D01*
Y0019250D01*
X0048000D01*
X0047500D01*
X0048000Y0019500D02*
Y0019250D01*
X0027625Y0008500D02*
Y0009500D01*
Y0010000D01*
X0035375D01*
Y0008000D01*
X0027625D01*
Y0008500D01*
X0027875D01*
Y0009500D01*
X0027625D01*
X0012500Y0016500D02*
Y0016750D01*
X0012000Y0019250D02*
Y0016750D01*
X0012500D01*
X0013000D01*
Y0019250D01*
X0012500D01*
X0012000D01*
X0012500Y0019500D02*
Y0019250D01*
X0030500Y0016500D02*
Y0016750D01*
X0030000Y0019250D02*
Y0016750D01*
X0030500D01*
X0031000D01*
Y0019250D01*
X0030500D01*
X0030000D01*
X0030500Y0019500D02*
Y0019250D01*
X0021000Y0019500D02*
Y0019250D01*
X0021500Y0016750D02*
Y0019250D01*
X0021000D01*
X0020500D01*
Y0016750D01*
X0021000D01*
X0021500D01*
X0021000Y0016500D02*
Y0016750D01*
X0024500Y0019500D02*
Y0019250D01*
X0025000Y0016750D02*
Y0019250D01*
X0024500D01*
X0024000D01*
Y0016750D01*
X0024500D01*
X0025000D01*
X0024500Y0016500D02*
Y0016750D01*
X0043500Y0016500D02*
Y0016750D01*
X0043000Y0019250D02*
Y0016750D01*
X0043500D01*
X0044000D01*
Y0019250D01*
X0043500D01*
X0043000D01*
X0043500Y0019500D02*
Y0019250D01*
X0046500Y0016500D02*
Y0016750D01*
X0046000Y0019250D02*
Y0016750D01*
X0046500D01*
X0047000D01*
Y0019250D01*
X0046500D01*
X0046000D01*
X0046500Y0019500D02*
Y0019250D01*
X0055000Y0018500D02*
X0054750D01*
X0052250Y0018000D02*
X0054750D01*
Y0018500D01*
Y0019000D01*
X0052250D01*
Y0018500D01*
Y0018000D01*
X0052000Y0018500D02*
X0052250D01*
X0014500Y0019500D02*
Y0019250D01*
X0015000Y0016750D02*
Y0019250D01*
X0014500D01*
X0014000D01*
Y0016750D01*
X0014500D01*
X0015000D01*
X0014500Y0016500D02*
Y0016750D01*
X0019000Y0019500D02*
Y0019250D01*
X0019500Y0016750D02*
Y0019250D01*
X0019000D01*
X0018500D01*
Y0016750D01*
X0019000D01*
X0019500D01*
X0019000Y0016500D02*
Y0016750D01*
X0016625Y0008500D02*
Y0009500D01*
Y0010000D01*
X0024375D01*
Y0008000D01*
X0016625D01*
Y0008500D01*
X0016875D01*
Y0009500D01*
X0016625D01*
X0035500Y0016500D02*
Y0016750D01*
X0035000Y0019250D02*
Y0016750D01*
X0035500D01*
X0036000D01*
Y0019250D01*
X0035500D01*
X0035000D01*
X0035500Y0019500D02*
Y0019250D01*
X0038625Y0008500D02*
Y0009500D01*
Y0010000D01*
X0046375D01*
Y0008000D01*
X0038625D01*
Y0008500D01*
X0038875D01*
Y0009500D01*
X0038625D01*
X0006500Y0016500D02*
Y0016750D01*
X0006000Y0019250D02*
Y0016750D01*
X0006500D01*
X0007000D01*
Y0019250D01*
X0006500D01*
X0006000D01*
X0006500Y0019500D02*
Y0019250D01*
X0055000Y0025500D02*
X0054750D01*
X0052250Y0025000D02*
X0054750D01*
Y0025500D01*
Y0026000D01*
X0052250D01*
Y0025500D01*
Y0025000D01*
X0052000Y0025500D02*
X0052250D01*
X0029000Y0016500D02*
Y0016750D01*
X0028500Y0019250D02*
Y0016750D01*
X0029000D01*
X0029500D01*
Y0019250D01*
X0029000D01*
X0028500D01*
X0029000Y0019500D02*
Y0019250D01*
X0045000Y0016500D02*
Y0016750D01*
X0044500Y0019250D02*
Y0016750D01*
X0045000D01*
X0045500D01*
Y0019250D01*
X0045000D01*
X0044500D01*
X0045000Y0019500D02*
Y0019250D01*
X0005625Y0008500D02*
Y0009500D01*
Y0010000D01*
X0013375D01*
Y0008000D01*
X0005625D01*
Y0008500D01*
X0005875D01*
Y0009500D01*
X0005625D01*
X0055000Y0032500D02*
X0054750D01*
X0052250Y0032000D02*
X0054750D01*
Y0032500D01*
Y0033000D01*
X0052250D01*
Y0032500D01*
Y0032000D01*
X0052000Y0032500D02*
X0052250D01*
X0032000Y0016500D02*
Y0016750D01*
X0031500Y0019250D02*
Y0016750D01*
X0032000D01*
X0032500D01*
Y0019250D01*
X0032000D01*
X0031500D01*
X0032000Y0019500D02*
Y0019250D01*
X0008000Y0016500D02*
Y0016750D01*
X0007500Y0019250D02*
Y0016750D01*
X0008000D01*
X0008500D01*
Y0019250D01*
X0008000D01*
X0007500D01*
X0008000Y0019500D02*
Y0019250D01*
X0022500Y0019500D02*
Y0019250D01*
X0023000Y0016750D02*
Y0019250D01*
X0022500D01*
X0022000D01*
Y0016750D01*
X0022500D01*
X0023000D01*
X0022500Y0016500D02*
Y0016750D01*
X0034000Y0016500D02*
Y0016750D01*
X0033500Y0019250D02*
Y0016750D01*
X0034000D01*
X0034500D01*
Y0019250D01*
X0034000D01*
X0033500D01*
X0034000Y0019500D02*
Y0019250D01*
X0039000Y0016500D02*
Y0016750D01*
X0038500Y0019250D02*
Y0016750D01*
X0039000D01*
X0039500D01*
Y0019250D01*
X0039000D01*
X0038500D01*
X0039000Y0019500D02*
Y0019250D01*
X0003500Y0016500D02*
Y0016750D01*
G01X0061000Y0021500D02*
G03X0062000Y0020500I0001000J0000000D01*
G03X0063000Y0021500I0000000J0001000D01*
G03X0062000Y0022500I0001000J0000000D01*
G03X0061000Y0021500I0000000J0001000D01*
G54D30*
G01X0053500Y0026695D02*
G03X0055805Y0029000I0000000J0002305D01*
G01X0051195D02*
G03X0053500Y0026695I0002305J0000000D01*
Y0031305D02*
G03X0051195Y0029000I0000000J0002305D01*
G01X0055805D02*
G03X0053500Y0031305I0002305J0000000D01*
Y0019695D02*
G03X0055805Y0022000I0000000J0002305D01*
G01X0051195D02*
G03X0053500Y0019695I0002305J0000000D01*
Y0024305D02*
G03X0051195Y0022000I0000000J0002305D01*
G01X0055805D02*
G03X0053500Y0024305I0002305J0000000D01*
Y0033695D02*
G03X0055805Y0036000I0000000J0002305D01*
G01X0051195D02*
G03X0053500Y0033695I0002305J0000000D01*
Y0038305D02*
G03X0051195Y0036000I0000000J0002305D01*
G01X0055805D02*
G03X0053500Y0038305I0002305J0000000D01*
M02*
