*
G04 Mass Parameters ***
*
G04 Image ***
*
%INC:\USERS\INAVA\DESKTOP\TEMPERATURA\OROLOGIOFINE.PWR*%
%ICAS*%
%MOIN*%
%IPPOS*%
%ASAXBY*%
G74*%FSLAN2X34Y34*%
*
G04 Aperture Definitions ***
*
%ADD10O,0.0620X0.1000*%
%ADD11C,0.1000*%
%ADD12O,0.1000X0.0750*%
%ADD13C,0.1200*%
%ADD14C,0.1575*%
%ADD15O,0.1000X0.0620*%
%ADD16C,0.0630*%
%ADD17C,0.0200*%
%ADD18C,0.0630*%
%ADD19C,0.0250*%
%ADD20C,0.0197*%
%ADD21C,0.0700*%
%ADD22C,0.1575*%
%ADD23C,0.0787*%
*
G04 Plot Data ***
*
G54D23*
G01X0000700Y0000400D02*
Y0039500D01*
X0064100D01*
Y0000400D01*
X0000700D01*
G54D16*
X0008000Y0005600D03*
Y0002200D03*
X0030000Y0006400D03*
Y0003000D03*
X0040900Y0002900D03*
Y0006300D03*
X0032000Y0006400D03*
Y0002200D03*
X0059600Y0001600D03*
Y0009000D03*
X0019000Y0003000D03*
Y0006200D03*
X0021000Y0006400D03*
Y0001400D03*
X0052200D03*
Y0006800D03*
X0043000Y0006300D03*
Y0003000D03*
X0058800Y0002400D03*
Y0008000D03*
X0010000Y0006000D03*
Y0003400D03*
X0053200Y0004200D03*
Y0006400D03*
X0057500Y0014100D03*
X0050700D03*
G54D21*
X0039000Y0007500D03*
X0040000D03*
X0041000D03*
X0042000D03*
X0043000D03*
X0044000D03*
X0045000D03*
X0046000D03*
Y0010500D03*
X0045000D03*
X0044000D03*
X0043000D03*
X0042000D03*
X0041000D03*
X0040000D03*
X0039000D03*
X0006000Y0007500D03*
X0007000D03*
X0008000D03*
X0009000D03*
X0010000D03*
X0011000D03*
X0012000D03*
X0013000D03*
Y0010500D03*
X0012000D03*
X0011000D03*
X0010000D03*
X0009000D03*
X0008000D03*
X0007000D03*
X0006000D03*
X0028000Y0007500D03*
X0029000D03*
X0030000D03*
X0031000D03*
X0032000D03*
X0033000D03*
X0034000D03*
X0035000D03*
Y0010500D03*
X0034000D03*
X0033000D03*
X0032000D03*
X0031000D03*
X0030000D03*
X0029000D03*
X0028000D03*
X0017000Y0007500D03*
X0018000D03*
X0019000D03*
X0020000D03*
X0021000D03*
X0022000D03*
X0023000D03*
X0024000D03*
Y0010500D03*
X0023000D03*
X0022000D03*
X0021000D03*
X0020000D03*
X0019000D03*
X0018000D03*
X0017000D03*
X0057500Y0007000D03*
Y0008000D03*
Y0009000D03*
Y0010000D03*
Y0011000D03*
Y0012000D03*
Y0013000D03*
X0054500D03*
Y0012000D03*
Y0011000D03*
Y0010000D03*
Y0009000D03*
Y0008000D03*
Y0007000D03*
X0060500Y0036000D03*
X0061500D03*
X0062500D03*
X0052500Y0021000D03*
X0054500D03*
Y0023000D03*
X0052500D03*
Y0028000D03*
X0054500D03*
Y0030000D03*
X0052500D03*
Y0035000D03*
X0054500D03*
Y0037000D03*
X0052500D03*
X0026000Y0020000D03*
Y0016000D03*
X0051500Y0018500D03*
X0055500D03*
X0051500Y0025500D03*
X0055500D03*
X0051500Y0032500D03*
X0055500D03*
X0012500Y0020000D03*
Y0016000D03*
X0011000Y0020000D03*
Y0016000D03*
X0009500Y0020000D03*
Y0016000D03*
X0005000Y0020000D03*
Y0016000D03*
X0003500Y0020000D03*
Y0016000D03*
X0008000Y0020000D03*
Y0016000D03*
X0006500Y0020000D03*
Y0016000D03*
X0043500Y0020000D03*
Y0016000D03*
X0042000Y0020000D03*
Y0016000D03*
X0045000Y0020000D03*
Y0016000D03*
X0046500Y0020000D03*
Y0016000D03*
X0048000Y0020000D03*
Y0016000D03*
X0039000Y0020000D03*
Y0016000D03*
X0040500Y0020000D03*
Y0016000D03*
X0032000Y0020000D03*
Y0016000D03*
X0030500Y0020000D03*
Y0016000D03*
X0034000Y0020000D03*
Y0016000D03*
X0035500Y0020000D03*
Y0016000D03*
X0037000Y0020000D03*
Y0016000D03*
X0029000Y0020000D03*
Y0016000D03*
X0027500Y0020000D03*
Y0016000D03*
X0021000D03*
Y0020000D03*
X0022500Y0016000D03*
Y0020000D03*
X0024500Y0016000D03*
Y0020000D03*
X0016000Y0016000D03*
Y0020000D03*
X0014500Y0016000D03*
Y0020000D03*
X0017500Y0016000D03*
Y0020000D03*
X0019000Y0016000D03*
Y0020000D03*
X0007500Y0024500D03*
X0008500D03*
X0009500D03*
X0010500D03*
X0011500D03*
Y0036500D03*
X0010500D03*
X0009500D03*
X0008500D03*
X0007500D03*
X0040500Y0024500D03*
X0041500D03*
X0042500D03*
X0043500D03*
X0044500D03*
Y0036500D03*
X0043500D03*
X0042500D03*
X0041500D03*
X0040500D03*
X0029500Y0024500D03*
X0030500D03*
X0031500D03*
X0032500D03*
X0033500D03*
Y0036500D03*
X0032500D03*
X0031500D03*
X0030500D03*
X0029500D03*
X0018500Y0024500D03*
X0019500D03*
X0020500D03*
X0021500D03*
X0022500D03*
Y0036500D03*
X0021500D03*
X0020500D03*
X0019500D03*
X0018500D03*
X0004500Y0002000D03*
Y0003000D03*
Y0004000D03*
Y0005000D03*
X0003000Y0007000D03*
Y0011000D03*
X0054500Y0005000D03*
X0057500D03*
X0061500Y0021500D03*
X0062500D03*
G54D22*
X0003000Y0029000D03*
Y0027000D03*
Y0025000D03*
M02*
