*
G04 Mass Parameters ***
*
G04 Image ***
*
%INC:\USERS\INAVA\DESKTOP\TEMPERATURA\OROLOGIOFINE.SST*%
%ICAS*%
%MOIN*%
%IPPOS*%
%ASAXBY*%
G74*%FSLAN2X34Y34*%
*
G04 Aperture Definitions ***
*
%ADD10O,0.0620X0.1000*%
%ADD11C,0.1000*%
%ADD12O,0.1000X0.0750*%
%ADD13C,0.1200*%
%ADD14C,0.1575*%
%ADD15O,0.1000X0.0620*%
%ADD16C,0.0630*%
%ADD17C,0.0200*%
%ADD18C,0.0630*%
%ADD19C,0.0250*%
%ADD20C,0.0197*%
%ADD21C,0.0700*%
%ADD22C,0.1575*%
%ADD23C,0.0787*%
%ADD24C,0.0670*%
%ADD25R,0.0670X0.0670*%
%ADD26C,0.0350*%
%ADD27C,0.0080*%
%ADD28C,0.0100*%
%ADD29C,0.0079*%
*
G04 Plot Data ***
*
G54D27*
G01X0002067Y0002012D02*
Y0001901D01*
Y0001957D02*
X0001734D01*
X0001790Y0001901D01*
X0001956Y0001463D02*
X0002012D01*
X0002067Y0001491D01*
Y0001602D01*
X0002012Y0001630D01*
X0001734D01*
Y0001658D02*
Y0001547D01*
X0002192Y0008084D02*
Y0007973D01*
Y0008028D02*
X0001859D01*
X0001915Y0007973D01*
X0002192Y0007535D02*
X0001859D01*
X0002192Y0007507D02*
Y0007674D01*
X0002081Y0007729D01*
X0001970D01*
X0001859Y0007674D01*
Y0007507D01*
X0055639Y0006183D02*
X0055417D01*
X0055639Y0006405D01*
Y0006460D01*
X0055612Y0006516D01*
X0055445D01*
X0055417Y0006460D01*
X0055229Y0006238D02*
X0055202Y0006183D01*
X0055035D01*
X0055007Y0006238D01*
Y0006460D01*
X0055035Y0006516D01*
X0055202D01*
X0055229Y0006460D01*
X0003919Y0027826D02*
Y0028048D01*
X0004141Y0027937D01*
Y0027881D01*
X0003808D01*
X0004141Y0028236D02*
X0003863D01*
X0003808Y0028263D01*
X0003974Y0028347D01*
X0004030D02*
X0003974D01*
X0003808Y0028430D01*
X0003863Y0028458D01*
X0004141D01*
X0004085Y0028646D02*
X0004141Y0028673D01*
Y0028840D01*
X0004085Y0028868D01*
X0004030D01*
X0003974Y0028840D01*
Y0028673D01*
X0003919Y0028646D01*
X0003863D01*
X0003808Y0028673D01*
Y0028840D01*
X0003863Y0028868D01*
X0026683Y0017826D02*
Y0018048D01*
X0026905Y0017826D01*
X0026960D01*
X0027016Y0017853D01*
Y0018020D01*
X0026960Y0018048D01*
X0026738Y0018458D02*
X0026683Y0018402D01*
Y0018291D01*
X0026738Y0018236D01*
X0026794D01*
X0026905Y0018347D01*
X0027016Y0018236D01*
Y0018458D01*
X0026849Y0018729D02*
X0026683Y0018646D01*
X0026849Y0018868D02*
Y0018701D01*
X0026905Y0018646D01*
X0026960D01*
X0027016Y0018701D01*
Y0018868D01*
X0026683D01*
X0017713Y0031158D02*
X0017490D01*
X0017713Y0031380D01*
Y0031435D01*
X0017685Y0031491D01*
X0017518D01*
X0017490Y0031435D01*
X0017108Y0031269D02*
Y0031213D01*
X0017136Y0031158D01*
X0017247D01*
X0017275Y0031213D01*
Y0031491D01*
X0017303D02*
X0017192D01*
X0028490Y0031213D02*
X0028546Y0031158D01*
X0028657D01*
X0028713Y0031213D01*
Y0031269D01*
X0028602Y0031380D01*
X0028713Y0031491D01*
X0028490D01*
X0028108Y0031269D02*
Y0031213D01*
X0028136Y0031158D01*
X0028247D01*
X0028275Y0031213D01*
Y0031491D01*
X0028303D02*
X0028192D01*
X0061240Y0037308D02*
X0061129D01*
X0061184D02*
Y0037641D01*
X0061129Y0037585D01*
X0060885Y0037641D02*
Y0037363D01*
X0060858Y0037308D01*
X0060691D01*
X0060663Y0037363D01*
Y0037641D01*
X0006490Y0031213D02*
X0006518Y0031158D01*
X0006685D01*
X0006713Y0031213D01*
Y0031324D01*
X0006657Y0031380D01*
X0006490D01*
Y0031491D01*
X0006713D01*
X0006108Y0031269D02*
Y0031213D01*
X0006136Y0031158D01*
X0006247D01*
X0006275Y0031213D01*
Y0031491D01*
X0006303D02*
X0006192D01*
X0004294Y0017826D02*
Y0018048D01*
X0004516Y0017937D01*
Y0017881D01*
X0004183D01*
Y0018236D02*
Y0018458D01*
X0004405Y0018236D01*
X0004460D01*
X0004516Y0018263D01*
Y0018430D01*
X0004460Y0018458D01*
X0004349Y0018729D02*
X0004183Y0018646D01*
X0004349Y0018868D02*
Y0018701D01*
X0004405Y0018646D01*
X0004460D01*
X0004516Y0018701D01*
Y0018868D01*
X0004183D01*
X0041238Y0018103D02*
X0041183Y0018076D01*
Y0017909D01*
X0041238Y0017881D01*
X0041349D01*
X0041405Y0017937D01*
Y0018103D01*
X0041516D01*
Y0017881D01*
X0041183Y0018291D02*
Y0018402D01*
Y0018347D02*
X0041516D01*
X0041460Y0018402D01*
X0041349Y0018729D02*
X0041183Y0018646D01*
X0041349Y0018868D02*
Y0018701D01*
X0041405Y0018646D01*
X0041460D01*
X0041516Y0018701D01*
Y0018868D01*
X0041183D01*
X0015206Y0017764D02*
Y0017542D01*
X0014984Y0017653D01*
Y0017709D01*
X0015317D01*
X0015151Y0017271D02*
X0015317Y0017354D01*
X0015151Y0017132D02*
Y0017299D01*
X0015095Y0017354D01*
X0015040D01*
X0014984Y0017299D01*
Y0017132D01*
X0015317D01*
X0016817Y0017764D02*
Y0017542D01*
X0016595Y0017764D01*
X0016540D01*
X0016484Y0017737D01*
Y0017570D01*
X0016540Y0017542D01*
X0016651Y0017271D02*
X0016817Y0017354D01*
X0016651Y0017132D02*
Y0017299D01*
X0016595Y0017354D01*
X0016540D01*
X0016484Y0017299D01*
Y0017132D01*
X0016817D01*
X0005738Y0018048D02*
X0005683Y0018020D01*
Y0017853D01*
X0005738Y0017826D01*
X0005849D01*
X0005905Y0017881D01*
Y0018048D01*
X0006016D01*
Y0017826D01*
X0005683Y0018236D02*
Y0018458D01*
X0005905Y0018236D01*
X0005960D01*
X0006016Y0018263D01*
Y0018430D01*
X0005960Y0018458D01*
X0005849Y0018729D02*
X0005683Y0018646D01*
X0005849Y0018868D02*
Y0018701D01*
X0005905Y0018646D01*
X0005960D01*
X0006016Y0018701D01*
Y0018868D01*
X0005683D01*
X0037683Y0018020D02*
X0037738Y0018076D01*
X0037794Y0018103D01*
X0037905D01*
X0037960Y0018076D01*
X0038016Y0018020D01*
Y0017964D01*
X0037960Y0017909D01*
X0037905Y0017881D01*
X0037794D01*
X0037738Y0017909D01*
X0037683Y0017964D01*
Y0018020D01*
Y0018291D02*
Y0018402D01*
Y0018347D02*
X0038016D01*
X0037960Y0018402D01*
X0037849Y0018729D02*
X0037683Y0018646D01*
X0037849Y0018868D02*
Y0018701D01*
X0037905Y0018646D01*
X0037960D01*
X0038016Y0018701D01*
Y0018868D01*
X0037683D01*
X0010349Y0018020D02*
Y0017853D01*
X0010294Y0017826D01*
X0010238D01*
X0010183Y0017853D01*
Y0018020D01*
X0010238Y0018048D01*
X0010294D01*
X0010516Y0017937D01*
X0010183Y0018236D02*
Y0018458D01*
X0010405Y0018236D01*
X0010460D01*
X0010516Y0018263D01*
Y0018430D01*
X0010460Y0018458D01*
X0010349Y0018729D02*
X0010183Y0018646D01*
X0010349Y0018868D02*
Y0018701D01*
X0010405Y0018646D01*
X0010460D01*
X0010516Y0018701D01*
Y0018868D01*
X0010183D01*
X0042683Y0017964D02*
X0042738Y0018020D01*
X0042794Y0018048D01*
X0042905D01*
X0042960Y0018020D01*
X0043016Y0017964D01*
Y0017909D01*
X0042960Y0017853D01*
X0042905Y0017826D01*
X0042794D01*
X0042738Y0017853D01*
X0042683Y0017909D01*
Y0017964D01*
Y0018236D02*
Y0018458D01*
X0042905Y0018236D01*
X0042960D01*
X0043016Y0018263D01*
Y0018430D01*
X0042960Y0018458D01*
X0042849Y0018729D02*
X0042683Y0018646D01*
X0042849Y0018868D02*
Y0018701D01*
X0042905Y0018646D01*
X0042960D01*
X0043016Y0018701D01*
Y0018868D01*
X0042683D01*
X0028349Y0018263D02*
X0028405Y0018236D01*
X0028460D01*
X0028516Y0018263D01*
Y0018430D01*
X0028460Y0018458D01*
X0028405D01*
X0028349Y0018430D01*
Y0018263D01*
X0028294Y0018236D01*
X0028238D01*
X0028183Y0018263D01*
Y0018430D01*
X0028238Y0018458D01*
X0028294D01*
X0028349Y0018430D01*
Y0018729D02*
X0028183Y0018646D01*
X0028349Y0018868D02*
Y0018701D01*
X0028405Y0018646D01*
X0028460D01*
X0028516Y0018701D01*
Y0018868D01*
X0028183D01*
X0053617Y0009735D02*
Y0009513D01*
X0053395Y0009735D01*
X0053340D01*
X0053284Y0009708D01*
Y0009541D01*
X0053340Y0009513D01*
X0053284Y0009325D02*
X0053562D01*
X0053617Y0009298D01*
Y0009131D01*
X0053562Y0009103D01*
X0053284D01*
X0011683Y0017992D02*
X0012016Y0017826D01*
Y0018048D01*
X0011683Y0018236D02*
Y0018458D01*
X0011905Y0018236D01*
X0011960D01*
X0012016Y0018263D01*
Y0018430D01*
X0011960Y0018458D01*
X0011849Y0018729D02*
X0011683Y0018646D01*
X0011849Y0018868D02*
Y0018701D01*
X0011905Y0018646D01*
X0011960D01*
X0012016Y0018701D01*
Y0018868D01*
X0011683D01*
X0048683Y0018048D02*
X0049016Y0017881D01*
Y0018103D01*
X0048683Y0018291D02*
Y0018402D01*
Y0018347D02*
X0049016D01*
X0048960Y0018402D01*
X0048849Y0018729D02*
X0048683Y0018646D01*
X0048849Y0018868D02*
Y0018701D01*
X0048905Y0018646D01*
X0048960D01*
X0049016Y0018701D01*
Y0018868D01*
X0048683D01*
X0031260Y0011519D02*
X0031038D01*
X0031149Y0011741D01*
X0031205D01*
Y0011408D01*
X0030850Y0011741D02*
Y0011463D01*
X0030823Y0011408D01*
X0030656D01*
X0030628Y0011463D01*
Y0011741D01*
X0013349Y0017853D02*
X0013405Y0017826D01*
X0013460D01*
X0013516Y0017853D01*
Y0018020D01*
X0013460Y0018048D01*
X0013405D01*
X0013349Y0018020D01*
Y0017853D01*
X0013294Y0017826D01*
X0013238D01*
X0013183Y0017853D01*
Y0018020D01*
X0013238Y0018048D01*
X0013294D01*
X0013349Y0018020D01*
X0013183Y0018236D02*
Y0018458D01*
X0013405Y0018236D01*
X0013460D01*
X0013516Y0018263D01*
Y0018430D01*
X0013460Y0018458D01*
X0013349Y0018729D02*
X0013183Y0018646D01*
X0013349Y0018868D02*
Y0018701D01*
X0013405Y0018646D01*
X0013460D01*
X0013516Y0018701D01*
Y0018868D01*
X0013183D01*
X0031238Y0018103D02*
X0031183Y0018048D01*
Y0017937D01*
X0031238Y0017881D01*
X0031294D01*
X0031405Y0017992D01*
X0031516Y0017881D01*
Y0018103D01*
X0031183Y0018291D02*
Y0018402D01*
Y0018347D02*
X0031516D01*
X0031460Y0018402D01*
X0031349Y0018729D02*
X0031183Y0018646D01*
X0031349Y0018868D02*
Y0018701D01*
X0031405Y0018646D01*
X0031460D01*
X0031516Y0018701D01*
Y0018868D01*
X0031183D01*
X0020317Y0017598D02*
X0019984Y0017764D01*
Y0017542D01*
X0020151Y0017271D02*
X0020317Y0017354D01*
X0020151Y0017132D02*
Y0017299D01*
X0020095Y0017354D01*
X0020040D01*
X0019984Y0017299D01*
Y0017132D01*
X0020317D01*
X0023762Y0017542D02*
X0023817Y0017570D01*
Y0017737D01*
X0023762Y0017764D01*
X0023651D01*
X0023595Y0017709D01*
Y0017542D01*
X0023484D01*
Y0017764D01*
X0023651Y0017271D02*
X0023817Y0017354D01*
X0023651Y0017132D02*
Y0017299D01*
X0023595Y0017354D01*
X0023540D01*
X0023484Y0017299D01*
Y0017132D01*
X0023817D01*
X0044183Y0017881D02*
Y0017992D01*
Y0017937D02*
X0044516D01*
X0044460Y0017992D01*
X0044183Y0018236D02*
Y0018458D01*
X0044405Y0018236D01*
X0044460D01*
X0044516Y0018263D01*
Y0018430D01*
X0044460Y0018458D01*
X0044349Y0018729D02*
X0044183Y0018646D01*
X0044349Y0018868D02*
Y0018701D01*
X0044405Y0018646D01*
X0044460D01*
X0044516Y0018701D01*
Y0018868D01*
X0044183D01*
X0047349Y0017909D02*
X0047405Y0017881D01*
X0047460D01*
X0047516Y0017909D01*
Y0018076D01*
X0047460Y0018103D01*
X0047405D01*
X0047349Y0018076D01*
Y0017909D01*
X0047294Y0017881D01*
X0047238D01*
X0047183Y0017909D01*
Y0018076D01*
X0047238Y0018103D01*
X0047294D01*
X0047349Y0018076D01*
X0047183Y0018291D02*
Y0018402D01*
Y0018347D02*
X0047516D01*
X0047460Y0018402D01*
X0047349Y0018729D02*
X0047183Y0018646D01*
X0047349Y0018868D02*
Y0018701D01*
X0047405Y0018646D01*
X0047460D01*
X0047516Y0018701D01*
Y0018868D01*
X0047183D01*
X0053705Y0031558D02*
X0053483D01*
X0053705Y0031780D01*
Y0031835D01*
X0053678Y0031891D01*
X0053511D01*
X0053483Y0031835D01*
X0053295Y0031891D02*
Y0031613D01*
X0053268Y0031558D01*
X0053184Y0031724D01*
Y0031780D02*
Y0031724D01*
X0053101Y0031558D01*
X0053073Y0031613D01*
Y0031891D01*
X0052885Y0031835D02*
X0052858Y0031891D01*
X0052691D01*
X0052663Y0031835D01*
Y0031780D01*
X0052691Y0031724D01*
X0052858D01*
X0052885Y0031669D01*
Y0031613D01*
X0052858Y0031558D01*
X0052691D01*
X0052663Y0031613D01*
X0053619Y0019183D02*
X0053508D01*
X0053563D02*
Y0019516D01*
X0053508Y0019460D01*
X0053042Y0019238D02*
X0053098Y0019183D01*
X0053209D01*
X0053264Y0019238D01*
Y0019294D01*
X0053153Y0019405D01*
X0053264Y0019516D01*
X0053042D01*
X0052771Y0019349D02*
X0052854Y0019183D01*
X0052632Y0019349D02*
X0052799D01*
X0052854Y0019405D01*
Y0019460D01*
X0052799Y0019516D01*
X0052632D01*
Y0019183D01*
X0013762Y0017542D02*
X0013817Y0017598D01*
Y0017709D01*
X0013762Y0017764D01*
X0013706D01*
X0013595Y0017653D01*
X0013484Y0017764D01*
Y0017542D01*
X0013651Y0017271D02*
X0013817Y0017354D01*
X0013651Y0017132D02*
Y0017299D01*
X0013595Y0017354D01*
X0013540D01*
X0013484Y0017299D01*
Y0017132D01*
X0013817D01*
X0018317Y0017709D02*
Y0017598D01*
Y0017653D02*
X0017984D01*
X0018040Y0017598D01*
X0018151Y0017271D02*
X0018317Y0017354D01*
X0018151Y0017132D02*
Y0017299D01*
X0018095Y0017354D01*
X0018040D01*
X0017984Y0017299D01*
Y0017132D01*
X0018317D01*
X0020038Y0011463D02*
X0020094Y0011408D01*
X0020205D01*
X0020260Y0011463D01*
Y0011519D01*
X0020149Y0011630D01*
X0020260Y0011741D01*
X0020038D01*
X0019850D02*
Y0011463D01*
X0019823Y0011408D01*
X0019656D01*
X0019628Y0011463D01*
Y0011741D01*
X0036183Y0017937D02*
Y0018048D01*
Y0017992D02*
X0036516D01*
X0036460Y0018048D01*
X0036183Y0018291D02*
Y0018402D01*
Y0018347D02*
X0036516D01*
X0036460Y0018402D01*
X0036349Y0018729D02*
X0036183Y0018646D01*
X0036349Y0018868D02*
Y0018701D01*
X0036405Y0018646D01*
X0036460D01*
X0036516Y0018701D01*
Y0018868D01*
X0036183D01*
X0042066Y0011574D02*
X0042233D01*
X0042260Y0011519D01*
Y0011463D01*
X0042233Y0011408D01*
X0042066D01*
X0042038Y0011463D01*
Y0011519D01*
X0042149Y0011741D01*
X0041850D02*
Y0011463D01*
X0041823Y0011408D01*
X0041656D01*
X0041628Y0011463D01*
Y0011741D01*
X0053483Y0024613D02*
X0053539Y0024558D01*
X0053650D01*
X0053705Y0024613D01*
Y0024669D01*
X0053594Y0024780D01*
X0053705Y0024891D01*
X0053483D01*
X0053295D02*
Y0024613D01*
X0053268Y0024558D01*
X0053184Y0024724D01*
Y0024780D02*
Y0024724D01*
X0053101Y0024558D01*
X0053073Y0024613D01*
Y0024891D01*
X0052885Y0024835D02*
X0052858Y0024891D01*
X0052691D01*
X0052663Y0024835D01*
Y0024780D01*
X0052691Y0024724D01*
X0052858D01*
X0052885Y0024669D01*
Y0024613D01*
X0052858Y0024558D01*
X0052691D01*
X0052663Y0024613D01*
X0007183Y0017826D02*
Y0018048D01*
X0007405Y0017826D01*
X0007460D01*
X0007516Y0017853D01*
Y0018020D01*
X0007460Y0018048D01*
X0007183Y0018236D02*
Y0018458D01*
X0007405Y0018236D01*
X0007460D01*
X0007516Y0018263D01*
Y0018430D01*
X0007460Y0018458D01*
X0007349Y0018729D02*
X0007183Y0018646D01*
X0007349Y0018868D02*
Y0018701D01*
X0007405Y0018646D01*
X0007460D01*
X0007516Y0018701D01*
Y0018868D01*
X0007183D01*
X0053536Y0026183D02*
X0053480Y0026238D01*
X0053452Y0026294D01*
Y0026405D01*
X0053480Y0026460D01*
X0053536Y0026516D01*
X0053591D01*
X0053647Y0026460D01*
X0053674Y0026405D01*
Y0026294D01*
X0053647Y0026238D01*
X0053591Y0026183D01*
X0053536D01*
X0053042Y0026238D02*
X0053098Y0026183D01*
X0053209D01*
X0053264Y0026238D01*
Y0026294D01*
X0053153Y0026405D01*
X0053264Y0026516D01*
X0053042D01*
X0052771Y0026349D02*
X0052854Y0026183D01*
X0052632Y0026349D02*
X0052799D01*
X0052854Y0026405D01*
Y0026460D01*
X0052799Y0026516D01*
X0052632D01*
Y0026183D01*
X0029849Y0018263D02*
Y0018430D01*
X0029905Y0018458D01*
X0029960D01*
X0030016Y0018430D01*
Y0018263D01*
X0029960Y0018236D01*
X0029905D01*
X0029683Y0018347D01*
X0029849Y0018729D02*
X0029683Y0018646D01*
X0029849Y0018868D02*
Y0018701D01*
X0029905Y0018646D01*
X0029960D01*
X0030016Y0018701D01*
Y0018868D01*
X0029683D01*
X0045849Y0017909D02*
Y0018076D01*
X0045905Y0018103D01*
X0045960D01*
X0046016Y0018076D01*
Y0017909D01*
X0045960Y0017881D01*
X0045905D01*
X0045683Y0017992D01*
Y0018291D02*
Y0018402D01*
Y0018347D02*
X0046016D01*
X0045960Y0018402D01*
X0045849Y0018729D02*
X0045683Y0018646D01*
X0045849Y0018868D02*
Y0018701D01*
X0045905Y0018646D01*
X0045960D01*
X0046016Y0018701D01*
Y0018868D01*
X0045683D01*
X0009038Y0011463D02*
X0009066Y0011408D01*
X0009233D01*
X0009260Y0011463D01*
Y0011574D01*
X0009205Y0011630D01*
X0009038D01*
Y0011741D01*
X0009260D01*
X0008850D02*
Y0011463D01*
X0008823Y0011408D01*
X0008656D01*
X0008628Y0011463D01*
Y0011741D01*
X0053647Y0033349D02*
X0053480D01*
X0053452Y0033405D01*
Y0033460D01*
X0053480Y0033516D01*
X0053647D01*
X0053674Y0033460D01*
Y0033405D01*
X0053563Y0033183D01*
X0053264D02*
X0053042D01*
X0053264Y0033405D01*
Y0033460D01*
X0053237Y0033516D01*
X0053070D01*
X0053042Y0033460D01*
X0052771Y0033349D02*
X0052854Y0033183D01*
X0052632Y0033349D02*
X0052799D01*
X0052854Y0033405D01*
Y0033460D01*
X0052799Y0033516D01*
X0052632D01*
Y0033183D01*
X0053650Y0038558D02*
X0053539D01*
X0053594D02*
Y0038891D01*
X0053539Y0038835D01*
X0053295Y0038891D02*
Y0038613D01*
X0053268Y0038558D01*
X0053184Y0038724D01*
Y0038780D02*
Y0038724D01*
X0053101Y0038558D01*
X0053073Y0038613D01*
Y0038891D01*
X0052885Y0038835D02*
X0052858Y0038891D01*
X0052691D01*
X0052663Y0038835D01*
Y0038780D01*
X0052691Y0038724D01*
X0052858D01*
X0052885Y0038669D01*
Y0038613D01*
X0052858Y0038558D01*
X0052691D01*
X0052663Y0038613D01*
X0032794Y0017881D02*
Y0018103D01*
X0033016Y0017992D01*
Y0017937D01*
X0032683D01*
Y0018291D02*
Y0018402D01*
Y0018347D02*
X0033016D01*
X0032960Y0018402D01*
X0032849Y0018729D02*
X0032683Y0018646D01*
X0032849Y0018868D02*
Y0018701D01*
X0032905Y0018646D01*
X0032960D01*
X0033016Y0018701D01*
Y0018868D01*
X0032683D01*
X0008738Y0018048D02*
X0008683Y0017992D01*
Y0017881D01*
X0008738Y0017826D01*
X0008794D01*
X0008905Y0017937D01*
X0009016Y0017826D01*
Y0018048D01*
X0008683Y0018236D02*
Y0018458D01*
X0008905Y0018236D01*
X0008960D01*
X0009016Y0018263D01*
Y0018430D01*
X0008960Y0018458D01*
X0008849Y0018729D02*
X0008683Y0018646D01*
X0008849Y0018868D02*
Y0018701D01*
X0008905Y0018646D01*
X0008960D01*
X0009016Y0018701D01*
Y0018868D01*
X0008683D01*
X0061584Y0022808D02*
X0061473D01*
X0061528D02*
Y0023141D01*
X0061473Y0023085D01*
X0061230Y0022863D02*
X0061202Y0022808D01*
X0061035D01*
X0061007Y0022863D01*
Y0023085D01*
X0061035Y0023141D01*
X0061202D01*
X0061230Y0023085D01*
X0039713Y0031269D02*
X0039490D01*
X0039602Y0031491D01*
X0039657D01*
Y0031158D01*
X0039108Y0031269D02*
Y0031213D01*
X0039136Y0031158D01*
X0039247D01*
X0039275Y0031213D01*
Y0031491D01*
X0039303D02*
X0039192D01*
X0021651Y0017570D02*
Y0017737D01*
X0021706Y0017764D01*
X0021762D01*
X0021817Y0017737D01*
Y0017570D01*
X0021762Y0017542D01*
X0021706D01*
X0021484Y0017653D01*
X0021651Y0017271D02*
X0021817Y0017354D01*
X0021651Y0017132D02*
Y0017299D01*
X0021595Y0017354D01*
X0021540D01*
X0021484Y0017299D01*
Y0017132D01*
X0021817D01*
X0034683Y0017881D02*
Y0018103D01*
X0034905Y0017881D01*
X0034960D01*
X0035016Y0017909D01*
Y0018076D01*
X0034960Y0018103D01*
X0034683Y0018291D02*
Y0018402D01*
Y0018347D02*
X0035016D01*
X0034960Y0018402D01*
X0034849Y0018729D02*
X0034683Y0018646D01*
X0034849Y0018868D02*
Y0018701D01*
X0034905Y0018646D01*
X0034960D01*
X0035016Y0018701D01*
Y0018868D01*
X0034683D01*
X0039849Y0018076D02*
Y0017909D01*
X0039794Y0017881D01*
X0039738D01*
X0039683Y0017909D01*
Y0018076D01*
X0039738Y0018103D01*
X0039794D01*
X0040016Y0017992D01*
X0039683Y0018291D02*
Y0018402D01*
Y0018347D02*
X0040016D01*
X0039960Y0018402D01*
X0039849Y0018729D02*
X0039683Y0018646D01*
X0039849Y0018868D02*
Y0018701D01*
X0039905Y0018646D01*
X0039960D01*
X0040016Y0018701D01*
Y0018868D01*
X0039683D01*
X0003000Y0007750D02*
Y0007500D01*
Y0010500D02*
Y0010250D01*
X0003500Y0009250D02*
Y0007750D01*
X0002500D01*
Y0010250D01*
X0003500D01*
Y0009250D01*
X0058000Y0005750D02*
X0054000D01*
Y0004250D01*
X0058000D01*
Y0005750D01*
X0005000Y0006000D02*
Y0001000D01*
X-0001500D01*
Y0006000D01*
X0005000D01*
X0026000Y0019500D02*
Y0019250D01*
Y0016500D02*
Y0016750D01*
X0025500Y0019250D02*
Y0016750D01*
X0026000D01*
X0026500D01*
Y0019250D01*
X0026000D01*
X0025500D01*
X0005100Y0027900D02*
Y0037000D01*
X0014000D01*
Y0024000D01*
X0005100D01*
Y0026900D01*
X0005350D01*
Y0027900D01*
X0005100D01*
X0016100D02*
Y0037000D01*
X0025000D01*
Y0024000D01*
X0016100D01*
Y0026900D01*
X0016350D01*
Y0027900D01*
X0016100D01*
X0060531Y0036401D02*
X0060758Y0036742D01*
X0061099Y0036969D01*
X0061500Y0037049D01*
X0061901Y0036969D01*
X0062242Y0036742D01*
X0062469Y0036401D01*
Y0035599D02*
X0062242Y0035258D01*
X0062250Y0035250D02*
X0060766D01*
X0060758Y0035258D01*
X0060531Y0035599D01*
X0027100Y0027900D02*
Y0037000D01*
X0036000D01*
Y0024000D01*
X0027100D01*
Y0026900D01*
X0027350D01*
Y0027900D01*
X0027100D01*
X0038100D02*
Y0037000D01*
X0047000D01*
Y0024000D01*
X0038100D01*
Y0026900D01*
X0038350D01*
Y0027900D01*
X0038100D01*
X0003000Y0019250D02*
Y0016750D01*
X0003500D01*
X0004000D01*
Y0019250D01*
X0003500D01*
X0003000D01*
X0003500Y0019500D02*
Y0019250D01*
X0040500Y0016500D02*
Y0016750D01*
X0040000Y0019250D02*
Y0016750D01*
X0040500D01*
X0041000D01*
Y0019250D01*
X0040500D01*
X0040000D01*
X0040500Y0019500D02*
Y0019250D01*
X0016000Y0019500D02*
Y0019250D01*
X0016500Y0016750D02*
Y0019250D01*
X0016000D01*
X0015500D01*
Y0016750D01*
X0016000D01*
X0016500D01*
X0016000Y0016500D02*
Y0016750D01*
X0017500Y0019500D02*
Y0019250D01*
X0018000Y0016750D02*
Y0019250D01*
X0017500D01*
X0017000D01*
Y0016750D01*
X0017500D01*
X0018000D01*
X0017500Y0016500D02*
Y0016750D01*
X0005000Y0016500D02*
Y0016750D01*
X0004500Y0019250D02*
Y0016750D01*
X0005000D01*
X0005500D01*
Y0019250D01*
X0005000D01*
X0004500D01*
X0005000Y0019500D02*
Y0019250D01*
X0037000Y0016500D02*
Y0016750D01*
X0036500Y0019250D02*
Y0016750D01*
X0037000D01*
X0037500D01*
Y0019250D01*
X0037000D01*
X0036500D01*
X0037000Y0019500D02*
Y0019250D01*
X0009500Y0016500D02*
Y0016750D01*
X0009000Y0019250D02*
Y0016750D01*
X0009500D01*
X0010000D01*
Y0019250D01*
X0009500D01*
X0009000D01*
X0009500Y0019500D02*
Y0019250D01*
X0042000Y0016500D02*
Y0016750D01*
X0041500Y0019250D02*
Y0016750D01*
X0042000D01*
X0042500D01*
Y0019250D01*
X0042000D01*
X0041500D01*
X0042000Y0019500D02*
Y0019250D01*
X0027500Y0016500D02*
Y0016750D01*
X0027000Y0019250D02*
Y0016750D01*
X0027500D01*
X0028000D01*
Y0019250D01*
X0027500D01*
X0027000D01*
X0027500Y0019500D02*
Y0019250D01*
X0055500Y0006500D02*
X0055000D01*
Y0013500D01*
X0057000D01*
Y0006500D01*
X0055500D01*
Y0006750D01*
X0056500D01*
Y0006500D01*
X0011000Y0016500D02*
Y0016750D01*
X0010500Y0019250D02*
Y0016750D01*
X0011000D01*
X0011500D01*
Y0019250D01*
X0011000D01*
X0010500D01*
X0011000Y0019500D02*
Y0019250D01*
X0048000Y0016500D02*
Y0016750D01*
X0047500Y0019250D02*
Y0016750D01*
X0048000D01*
X0048500D01*
Y0019250D01*
X0048000D01*
X0047500D01*
X0048000Y0019500D02*
Y0019250D01*
X0027625Y0008500D02*
Y0009500D01*
Y0010000D01*
X0035375D01*
Y0008000D01*
X0027625D01*
Y0008500D01*
X0027875D01*
Y0009500D01*
X0027625D01*
X0012500Y0016500D02*
Y0016750D01*
X0012000Y0019250D02*
Y0016750D01*
X0012500D01*
X0013000D01*
Y0019250D01*
X0012500D01*
X0012000D01*
X0012500Y0019500D02*
Y0019250D01*
X0030500Y0016500D02*
Y0016750D01*
X0030000Y0019250D02*
Y0016750D01*
X0030500D01*
X0031000D01*
Y0019250D01*
X0030500D01*
X0030000D01*
X0030500Y0019500D02*
Y0019250D01*
X0021000Y0019500D02*
Y0019250D01*
X0021500Y0016750D02*
Y0019250D01*
X0021000D01*
X0020500D01*
Y0016750D01*
X0021000D01*
X0021500D01*
X0021000Y0016500D02*
Y0016750D01*
X0024500Y0019500D02*
Y0019250D01*
X0025000Y0016750D02*
Y0019250D01*
X0024500D01*
X0024000D01*
Y0016750D01*
X0024500D01*
X0025000D01*
X0024500Y0016500D02*
Y0016750D01*
X0043500Y0016500D02*
Y0016750D01*
X0043000Y0019250D02*
Y0016750D01*
X0043500D01*
X0044000D01*
Y0019250D01*
X0043500D01*
X0043000D01*
X0043500Y0019500D02*
Y0019250D01*
X0046500Y0016500D02*
Y0016750D01*
X0046000Y0019250D02*
Y0016750D01*
X0046500D01*
X0047000D01*
Y0019250D01*
X0046500D01*
X0046000D01*
X0046500Y0019500D02*
Y0019250D01*
X0055000Y0018500D02*
X0054750D01*
X0052250Y0018000D02*
X0054750D01*
Y0018500D01*
Y0019000D01*
X0052250D01*
Y0018500D01*
Y0018000D01*
X0052000Y0018500D02*
X0052250D01*
X0014500Y0019500D02*
Y0019250D01*
X0015000Y0016750D02*
Y0019250D01*
X0014500D01*
X0014000D01*
Y0016750D01*
X0014500D01*
X0015000D01*
X0014500Y0016500D02*
Y0016750D01*
X0019000Y0019500D02*
Y0019250D01*
X0019500Y0016750D02*
Y0019250D01*
X0019000D01*
X0018500D01*
Y0016750D01*
X0019000D01*
X0019500D01*
X0019000Y0016500D02*
Y0016750D01*
X0016625Y0008500D02*
Y0009500D01*
Y0010000D01*
X0024375D01*
Y0008000D01*
X0016625D01*
Y0008500D01*
X0016875D01*
Y0009500D01*
X0016625D01*
X0035500Y0016500D02*
Y0016750D01*
X0035000Y0019250D02*
Y0016750D01*
X0035500D01*
X0036000D01*
Y0019250D01*
X0035500D01*
X0035000D01*
X0035500Y0019500D02*
Y0019250D01*
X0038625Y0008500D02*
Y0009500D01*
Y0010000D01*
X0046375D01*
Y0008000D01*
X0038625D01*
Y0008500D01*
X0038875D01*
Y0009500D01*
X0038625D01*
X0006500Y0016500D02*
Y0016750D01*
X0006000Y0019250D02*
Y0016750D01*
X0006500D01*
X0007000D01*
Y0019250D01*
X0006500D01*
X0006000D01*
X0006500Y0019500D02*
Y0019250D01*
X0055000Y0025500D02*
X0054750D01*
X0052250Y0025000D02*
X0054750D01*
Y0025500D01*
Y0026000D01*
X0052250D01*
Y0025500D01*
Y0025000D01*
X0052000Y0025500D02*
X0052250D01*
X0029000Y0016500D02*
Y0016750D01*
X0028500Y0019250D02*
Y0016750D01*
X0029000D01*
X0029500D01*
Y0019250D01*
X0029000D01*
X0028500D01*
X0029000Y0019500D02*
Y0019250D01*
X0045000Y0016500D02*
Y0016750D01*
X0044500Y0019250D02*
Y0016750D01*
X0045000D01*
X0045500D01*
Y0019250D01*
X0045000D01*
X0044500D01*
X0045000Y0019500D02*
Y0019250D01*
X0005625Y0008500D02*
Y0009500D01*
Y0010000D01*
X0013375D01*
Y0008000D01*
X0005625D01*
Y0008500D01*
X0005875D01*
Y0009500D01*
X0005625D01*
X0055000Y0032500D02*
X0054750D01*
X0052250Y0032000D02*
X0054750D01*
Y0032500D01*
Y0033000D01*
X0052250D01*
Y0032500D01*
Y0032000D01*
X0052000Y0032500D02*
X0052250D01*
X0032000Y0016500D02*
Y0016750D01*
X0031500Y0019250D02*
Y0016750D01*
X0032000D01*
X0032500D01*
Y0019250D01*
X0032000D01*
X0031500D01*
X0032000Y0019500D02*
Y0019250D01*
X0008000Y0016500D02*
Y0016750D01*
X0007500Y0019250D02*
Y0016750D01*
X0008000D01*
X0008500D01*
Y0019250D01*
X0008000D01*
X0007500D01*
X0008000Y0019500D02*
Y0019250D01*
X0022500Y0019500D02*
Y0019250D01*
X0023000Y0016750D02*
Y0019250D01*
X0022500D01*
X0022000D01*
Y0016750D01*
X0022500D01*
X0023000D01*
X0022500Y0016500D02*
Y0016750D01*
X0034000Y0016500D02*
Y0016750D01*
X0033500Y0019250D02*
Y0016750D01*
X0034000D01*
X0034500D01*
Y0019250D01*
X0034000D01*
X0033500D01*
X0034000Y0019500D02*
Y0019250D01*
X0039000Y0016500D02*
Y0016750D01*
X0038500Y0019250D02*
Y0016750D01*
X0039000D01*
X0039500D01*
Y0019250D01*
X0039000D01*
X0038500D01*
X0039000Y0019500D02*
Y0019250D01*
X0003500Y0016500D02*
Y0016750D01*
G01X0053500Y0026849D02*
G03X0055651Y0029000I0000000J0002151D01*
G01X0051349D02*
G03X0053500Y0026849I0002151J0000000D01*
Y0031151D02*
G03X0051349Y0029000I0000000J0002151D01*
G01X0055651D02*
G03X0053500Y0031151I0002151J0000000D01*
Y0019849D02*
G03X0055651Y0022000I0000000J0002151D01*
G01X0051349D02*
G03X0053500Y0019849I0002151J0000000D01*
Y0024151D02*
G03X0051349Y0022000I0000000J0002151D01*
G01X0055651D02*
G03X0053500Y0024151I0002151J0000000D01*
Y0033849D02*
G03X0055651Y0036000I0000000J0002151D01*
G01X0051349D02*
G03X0053500Y0033849I0002151J0000000D01*
Y0038151D02*
G03X0051349Y0036000I0000000J0002151D01*
G01X0055651D02*
G03X0053500Y0038151I0002151J0000000D01*
G01X0061000Y0021500D02*
G03X0062000Y0020500I0001000J0000000D01*
G03X0063000Y0021500I0000000J0001000D01*
G03X0062000Y0022500I0001000J0000000D01*
G03X0061000Y0021500I0000000J0001000D01*
G54D28*
G01X0003375Y0005008D02*
X0003708D01*
X0003542Y0005175D02*
Y0004842D01*
Y0002175D02*
Y0001842D01*
X0004500Y0030000D02*
Y0024000D01*
X0001500D01*
Y0030000D01*
X0004500D01*
G54D29*
G01X0003500Y0009750D02*
X0002500D01*
M02*
