*
G04 Mass Parameters ***
*
G04 Image ***
*
%INC:\USERS\INAVA\DESKTOP\TEMPERATURA\OROLOGIOFINE.BOT*%
%ICAS*%
%MOIN*%
%IPPOS*%
%ASAXBY*%
G74*%FSLAN2X34Y34*%
*
G04 Aperture Definitions ***
*
%ADD10O,0.0620X0.1000*%
%ADD11C,0.1000*%
%ADD12O,0.1000X0.0750*%
%ADD13C,0.1200*%
%ADD14C,0.1575*%
%ADD15O,0.1000X0.0620*%
%ADD16C,0.0630*%
%ADD17C,0.0200*%
%ADD18C,0.0630*%
%ADD19C,0.0250*%
%ADD20C,0.0197*%
*
G04 Plot Data ***
*
G54D17*
G01X0023000Y0007500D02*
Y0005000D01*
X0022800Y0004800D01*
X0014400D01*
X0014200Y0005000D01*
Y0008000D01*
X0013800Y0008400D01*
X0012400D01*
X0012000Y0008000D01*
Y0007500D01*
X0022000D02*
Y0005800D01*
X0021600Y0005400D01*
X0015400D01*
X0015000Y0005800D01*
Y0008400D01*
X0014600Y0008800D01*
X0011400D01*
X0011000Y0008400D01*
Y0007500D01*
X0034000D02*
Y0005200D01*
X0033800Y0005000D01*
X0025400D01*
X0025200Y0005200D01*
Y0008000D01*
X0024800Y0008400D01*
X0023200D01*
X0023000Y0008200D01*
Y0007500D01*
X0054500Y0012000D02*
X0055200D01*
X0055600Y0012400D01*
Y0015200D01*
X0055000Y0015800D01*
X0049600D01*
X0049000Y0015200D01*
Y0010400D01*
X0048200Y0009600D01*
X0039000D01*
Y0007500D01*
X0018000D02*
Y0006400D01*
X0017600Y0006000D01*
X0015800D01*
X0015600Y0006200D01*
Y0008800D01*
X0015200Y0009200D01*
X0007600D01*
X0007000Y0008600D01*
Y0007500D01*
X0029000D02*
Y0006600D01*
X0028600Y0006200D01*
X0026800D01*
X0026600Y0006400D01*
Y0008400D01*
X0025800Y0009200D01*
X0018600D01*
X0018000Y0008600D01*
Y0007500D01*
X0045000D02*
Y0005400D01*
X0044400Y0004800D01*
X0037200D01*
X0036600Y0005400D01*
Y0008000D01*
X0036200Y0008400D01*
X0034400D01*
X0034000Y0008000D01*
Y0007500D01*
X0033000D02*
Y0006000D01*
X0032600Y0005600D01*
X0026400D01*
X0026000Y0006000D01*
Y0008200D01*
X0025400Y0008800D01*
X0022400D01*
X0022000Y0008400D01*
Y0007500D01*
X0006000D02*
Y0008800D01*
X0006800Y0009600D01*
X0017000D01*
Y0007500D01*
X0028000D02*
Y0009600D01*
X0039000D01*
Y0007500D01*
X0044000D02*
Y0006000D01*
X0043400Y0005400D01*
X0038000D01*
X0037400Y0006000D01*
Y0008200D01*
X0036800Y0008800D01*
X0033600D01*
X0033000Y0008200D01*
Y0007500D01*
X0040000D02*
Y0006600D01*
X0039600Y0006200D01*
X0038400D01*
X0038000Y0006600D01*
Y0008600D01*
X0037400Y0009200D01*
X0029600D01*
X0029000Y0008600D01*
Y0007500D01*
X0017000D02*
Y0009600D01*
X0028000D01*
Y0007500D01*
X0045000D02*
Y0008000D01*
X0045400Y0008400D01*
X0051200D01*
X0051600Y0008800D01*
Y0010600D01*
X0052000Y0011000D01*
X0054500D01*
Y0013000D02*
Y0014500D01*
X0054000Y0015000D01*
X0050400D01*
X0049800Y0014400D01*
Y0009800D01*
X0049200Y0009200D01*
X0040600D01*
X0040000Y0008600D01*
Y0007500D01*
X0057500Y0013000D02*
Y0014100D01*
X0050700D02*
Y0009300D01*
X0050200Y0008800D01*
X0044600D01*
X0044000Y0008200D01*
Y0007500D01*
G54D19*
G01X0026000Y0020000D02*
Y0019600D01*
X0025300Y0018900D01*
X0023800D01*
X0023400Y0019300D01*
Y0024300D01*
X0023200Y0024500D01*
X0022500D01*
X0031500Y0036500D02*
Y0038300D01*
X0031400Y0038400D01*
X0020600D01*
X0020500Y0038300D01*
Y0036500D01*
Y0038300D01*
X0020600Y0038400D01*
X0009600D01*
X0009500Y0038300D01*
Y0036500D01*
Y0038300D01*
X0009600Y0038400D01*
X0002600D01*
X0001800Y0037600D01*
Y0030200D01*
X0003000Y0029000D01*
X0052500Y0035000D02*
Y0030000D01*
Y0028000D01*
Y0023000D01*
X0042000Y0007500D02*
X0041000D01*
X0031000D02*
X0030000D01*
X0020000D02*
X0019000D01*
X0009000D02*
X0008000D01*
X0057500Y0007000D02*
Y0005000D01*
X0028000Y0010500D02*
Y0012800D01*
X0026000Y0014800D01*
Y0016000D01*
X0052500Y0035000D02*
Y0035900D01*
X0052600Y0036000D01*
X0060500D01*
X0057500Y0005000D02*
X0059600D01*
X0060400Y0005800D01*
Y0035900D01*
X0060500Y0036000D01*
X0026000Y0016000D02*
Y0017400D01*
X0038000D01*
Y0014200D01*
X0039000Y0013200D01*
Y0010500D01*
X0026000Y0016000D02*
Y0017400D01*
X0013600D01*
Y0014000D01*
X0017000Y0010600D01*
Y0010500D01*
X0003000Y0011000D02*
X0003400D01*
X0003800Y0010600D01*
X0004600D01*
X0005900D01*
X0006000Y0010500D01*
X0005900Y0010600D01*
X0004600D01*
Y0007000D01*
X0005400Y0006200D01*
X0008000D01*
Y0007500D01*
X0052500Y0021000D02*
X0052800Y0020700D01*
Y0018200D01*
X0052000Y0017400D01*
X0038000D01*
X0026000D01*
Y0016000D01*
X0003000Y0011000D02*
Y0011200D01*
X0002400Y0011800D01*
Y0016400D01*
X0003400Y0017400D01*
X0013600D01*
X0026000D01*
Y0016000D01*
X0030000Y0007500D02*
Y0006400D01*
Y0003000D02*
X0019000D01*
Y0006200D02*
Y0007500D01*
X0008000D02*
Y0006200D01*
Y0005600D01*
Y0002200D02*
X0018200D01*
X0019000Y0003000D01*
Y0006200D02*
Y0007500D01*
X0030000D02*
Y0006400D01*
Y0003000D02*
X0040800D01*
X0040900Y0002900D01*
Y0006300D02*
Y0007500D01*
X0041000D01*
X0062500Y0036000D02*
Y0036100D01*
Y0037500D01*
X0061600Y0038400D01*
X0052200D01*
X0051500Y0037700D01*
Y0032500D01*
X0004500Y0002000D02*
X0002400D01*
X0001600Y0002800D01*
Y0004800D01*
Y0005400D01*
Y0026000D01*
X0002600Y0027000D01*
X0003000D01*
X0042000Y0020000D02*
Y0020600D01*
X0039000Y0023600D01*
Y0034500D01*
X0039800Y0035300D01*
X0043300D01*
X0043500Y0035500D01*
Y0036500D01*
X0052500Y0021300D02*
Y0023000D01*
X0013000Y0007500D02*
Y0004200D01*
X0006600D01*
X0006200Y0003800D01*
Y0002200D01*
X0006000Y0002000D01*
X0004500D01*
X0054500Y0005000D02*
X0046000D01*
X0045200Y0004200D01*
X0035000D01*
Y0007500D01*
X0024000D02*
Y0004200D01*
X0035000D01*
Y0007500D01*
X0013000D02*
Y0004200D01*
X0024000D01*
Y0007500D01*
X0046000D02*
Y0005000D01*
X0054500D01*
Y0007000D02*
Y0005000D01*
X0051500Y0025500D02*
Y0018500D01*
X0019000Y0007500D02*
Y0006200D01*
Y0002800D02*
Y0003000D01*
Y0006200D02*
Y0007500D01*
X0062500Y0036000D02*
Y0021500D01*
X0045000Y0020000D02*
Y0020800D01*
X0043500Y0022300D01*
Y0024500D01*
X0054500Y0028000D02*
Y0026500D01*
X0055500Y0025500D01*
X0044000Y0010500D02*
Y0013500D01*
X0045000Y0014500D01*
Y0016000D01*
X0005000Y0020000D02*
X0005100D01*
X0005000Y0020100D01*
Y0022300D01*
X0005600Y0022900D01*
Y0035800D01*
X0006300Y0036500D01*
X0007500D01*
X0055500Y0018500D02*
X0058200D01*
X0058600Y0018100D01*
Y0012300D01*
X0058300Y0012000D01*
X0057500D01*
X0051500Y0032500D02*
Y0025500D01*
X0054500Y0005000D02*
Y0003900D01*
X0055200Y0003200D01*
X0061600D01*
X0062500Y0004100D01*
Y0021400D01*
X0012000Y0010500D02*
Y0013500D01*
X0011000Y0014500D01*
Y0016000D01*
X0013000Y0010500D02*
Y0013700D01*
X0012400Y0014300D01*
Y0015900D01*
X0012500Y0016000D01*
X0003500Y0020000D02*
Y0022200D01*
X0004600Y0023300D01*
Y0037000D01*
X0005400Y0037800D01*
X0008000D01*
X0008500Y0037300D01*
Y0036500D01*
X0035500Y0020000D02*
Y0019200D01*
X0035200Y0018900D01*
X0033400D01*
X0033000Y0019300D01*
Y0020700D01*
X0030500Y0023200D01*
Y0024500D01*
X0032000Y0007500D02*
Y0006400D01*
Y0002200D02*
X0053200D01*
X0053800Y0001600D01*
X0059600D01*
Y0009000D02*
X0057500D01*
X0054500Y0008000D02*
X0054600D01*
X0055600Y0007000D01*
Y0004800D01*
X0056400Y0004000D01*
X0060600D01*
X0061500Y0004900D01*
Y0021500D01*
X0035000Y0010500D02*
Y0012500D01*
X0037000Y0014500D01*
Y0016000D01*
X0029000Y0010500D02*
Y0013100D01*
X0027500Y0014600D01*
Y0016000D01*
X0008000Y0010500D02*
Y0011300D01*
X0005000Y0014300D01*
Y0016000D01*
X0055500Y0025500D02*
X0058800D01*
X0059200Y0025100D01*
Y0011700D01*
X0058500Y0011000D01*
X0057500D01*
X0046000Y0010500D02*
Y0012700D01*
X0048000Y0014700D01*
Y0016000D01*
X0019000Y0007500D02*
Y0006200D01*
Y0003200D02*
Y0003000D01*
Y0006200D02*
Y0007500D01*
X0033000Y0010500D02*
Y0013700D01*
X0034000Y0014700D01*
Y0016000D01*
X0020000Y0010500D02*
Y0011900D01*
X0017500Y0014400D01*
Y0016000D01*
X0016000Y0020000D02*
Y0035700D01*
X0016800Y0036500D01*
X0018500D01*
X0045000Y0010500D02*
Y0013100D01*
X0046500Y0014600D01*
Y0016000D01*
X0019500Y0036500D02*
Y0037200D01*
X0019100Y0037600D01*
X0015400D01*
X0014500Y0036700D01*
Y0020000D01*
X0011000D02*
Y0021000D01*
X0012500Y0022500D01*
Y0025200D01*
X0011900Y0025800D01*
X0009100D01*
X0008500Y0025200D01*
Y0024500D01*
X0032000Y0016000D02*
Y0010500D01*
X0055500Y0032500D02*
X0059400D01*
X0059800Y0032100D01*
Y0010900D01*
X0058900Y0010000D01*
X0057500D01*
X0040500Y0036500D02*
X0039400D01*
X0038200Y0035300D01*
Y0023000D01*
X0040500Y0020700D01*
Y0020000D01*
X0009000Y0010500D02*
Y0011900D01*
X0006500Y0014400D01*
Y0016000D01*
X0021000Y0007500D02*
Y0006400D01*
Y0001400D02*
X0052200D01*
Y0006800D02*
Y0009400D01*
X0052800Y0010000D01*
X0054500D01*
X0043000Y0010500D02*
Y0014100D01*
X0043400Y0014500D01*
Y0015900D01*
X0043500Y0016000D01*
X0043000Y0007500D02*
Y0006300D01*
Y0003000D02*
X0053800D01*
X0054400Y0002400D01*
X0058800D01*
Y0008000D02*
X0057500D01*
X0012500Y0020000D02*
Y0021100D01*
X0013400Y0022000D01*
Y0025900D01*
X0012500Y0026800D01*
X0008300D01*
X0007500Y0026000D01*
Y0024500D01*
X0008000Y0020000D02*
Y0021600D01*
X0006800Y0022800D01*
Y0033900D01*
X0007400Y0034500D01*
X0011000D01*
X0011500Y0035000D01*
Y0036500D01*
X0010000Y0010500D02*
Y0012500D01*
X0008000Y0014500D01*
Y0016000D01*
X0004500Y0005000D02*
X0003600D01*
X0003000Y0005600D01*
Y0007000D01*
X0034000Y0010500D02*
Y0013100D01*
X0035500Y0014600D01*
Y0016000D01*
X0022000Y0010500D02*
Y0013500D01*
X0021000Y0014500D01*
Y0016000D01*
X0030000Y0010500D02*
Y0013700D01*
X0029000Y0014700D01*
Y0016000D01*
X0043400Y0036500D02*
X0043500D01*
X0024500Y0016000D02*
Y0011000D01*
X0024000Y0010500D01*
X0019000D02*
Y0011500D01*
X0016000Y0014500D01*
Y0016000D01*
X0032000Y0020000D02*
Y0020600D01*
X0028400Y0024200D01*
Y0033700D01*
X0029200Y0034500D01*
X0032400D01*
X0033500Y0035600D01*
Y0036500D01*
X0023000Y0010500D02*
Y0014100D01*
X0022500Y0014600D01*
Y0016000D01*
X0017500Y0020000D02*
Y0021100D01*
X0017000Y0021600D01*
Y0034600D01*
X0017700Y0035300D01*
X0021000D01*
X0021500Y0035800D01*
Y0036500D01*
X0027500Y0020000D02*
Y0021100D01*
X0026000Y0022600D01*
Y0036500D01*
X0027000Y0037500D01*
X0029700D01*
X0030500Y0036700D01*
Y0036500D01*
X0041500Y0024500D02*
Y0025200D01*
X0042100Y0025800D01*
X0045700D01*
X0046500Y0025000D01*
Y0020000D01*
X0041000Y0010500D02*
Y0014100D01*
X0040600Y0014500D01*
Y0015900D01*
X0040500Y0016000D01*
X0054500Y0035000D02*
Y0033500D01*
X0055500Y0032500D01*
X0018000Y0010500D02*
Y0010900D01*
X0014500Y0014400D01*
Y0016000D01*
X0010500Y0036500D02*
Y0035800D01*
X0010000Y0035300D01*
X0007000D01*
X0006200Y0034500D01*
Y0020300D01*
X0006500Y0020000D01*
X0062400Y0036200D02*
X0062500Y0036100D01*
Y0036000D01*
X0031000Y0010500D02*
Y0014100D01*
X0030500Y0014600D01*
Y0016000D01*
X0037000Y0020000D02*
Y0021100D01*
X0035800Y0022300D01*
Y0026000D01*
X0035000Y0026800D01*
X0030200D01*
X0029500Y0026100D01*
Y0024500D01*
X0010000Y0007500D02*
Y0006000D01*
Y0003400D02*
X0017900D01*
X0018200Y0003700D01*
X0045600D01*
X0046000Y0004100D01*
X0053200D01*
Y0004200D01*
Y0006400D02*
Y0008600D01*
X0053600Y0009000D01*
X0054500D01*
X0011000Y0010500D02*
Y0013100D01*
X0009500Y0014600D01*
Y0016000D01*
Y0020000D02*
Y0021500D01*
X0010500Y0022500D01*
Y0024500D01*
X0042000Y0016000D02*
Y0010500D01*
X0022500Y0020000D02*
Y0019200D01*
X0022000Y0018700D01*
X0020600D01*
X0020000Y0019300D01*
Y0021900D01*
X0019500Y0022400D01*
Y0024500D01*
X0007000Y0010500D02*
Y0010900D01*
X0003500Y0014400D01*
Y0016000D01*
X0029500Y0036500D02*
X0027600D01*
X0026800Y0035700D01*
Y0023200D01*
X0029000Y0021000D01*
Y0020000D01*
X0040000Y0010500D02*
Y0013700D01*
X0039000Y0014700D01*
Y0016000D01*
X0021000Y0020000D02*
Y0020800D01*
X0021500Y0021300D01*
Y0024500D01*
X0054500Y0021000D02*
Y0019500D01*
X0055500Y0018500D01*
X0018500Y0024500D02*
Y0026100D01*
X0019200Y0026800D01*
X0023600D01*
X0024500Y0025900D01*
Y0020000D01*
X0061500Y0036000D02*
Y0021500D01*
X0042500Y0036500D02*
Y0037500D01*
X0041600Y0038400D01*
X0031400D01*
X0031500Y0038300D01*
Y0036500D01*
X0002600Y0011000D02*
X0003000D01*
X0019000Y0020000D02*
Y0021000D01*
X0017800Y0022200D01*
Y0033700D01*
X0018600Y0034500D01*
X0022000D01*
X0022500Y0035000D01*
Y0036500D01*
X0043500Y0020000D02*
Y0020300D01*
X0039800Y0024000D01*
Y0033900D01*
X0040400Y0034500D01*
X0043800D01*
X0044500Y0035200D01*
Y0036500D01*
X0021000Y0010500D02*
Y0012500D01*
X0019000Y0014500D01*
Y0016000D01*
X0034000Y0020000D02*
Y0021300D01*
X0032500Y0022800D01*
Y0024500D01*
X0040500D02*
Y0025900D01*
X0041400Y0026800D01*
X0047000D01*
X0048000Y0025800D01*
Y0020000D01*
X0039000D02*
Y0021000D01*
X0037000Y0023000D01*
Y0036500D01*
X0038000Y0037500D01*
X0040700D01*
X0041500Y0036700D01*
Y0036500D01*
X0030500Y0020000D02*
Y0020700D01*
X0027600Y0023600D01*
Y0034500D01*
X0028400Y0035300D01*
X0031800D01*
X0032500Y0036000D01*
Y0036500D01*
G54D20*
G01X0034844Y0029376D02*
Y0029901D01*
X0035107Y0029376D02*
X0034713D01*
X0034319Y0029573D01*
Y0029704D01*
X0034713Y0029901D01*
X0035107D01*
X0034713Y0030885D02*
Y0030492D01*
X0034582Y0030360D01*
X0034451D01*
X0034319Y0030492D01*
Y0030885D01*
X0035107D01*
X0034713Y0031870D02*
Y0031476D01*
X0034582Y0031345D01*
X0034451D01*
X0034319Y0031476D01*
Y0031870D01*
X0035107D01*
Y0032329D02*
Y0032591D01*
Y0032460D02*
X0034319D01*
Y0032329D02*
Y0032591D01*
X0034713Y0033379D02*
X0035107Y0033182D01*
X0034713Y0033707D02*
Y0033313D01*
X0034582Y0033182D01*
X0034451D01*
X0034319Y0033313D01*
Y0033707D01*
X0035107D01*
X0034976Y0034166D02*
X0035107Y0034232D01*
Y0034625D01*
X0034976Y0034691D01*
X0034451D01*
X0034319Y0034625D01*
Y0034232D01*
X0034451Y0034166D01*
X0034844Y0029376D02*
Y0029901D01*
X0035107Y0029376D02*
X0034713D01*
X0034319Y0029573D01*
Y0029704D01*
X0034713Y0029901D01*
X0035107D01*
X0034713Y0030885D02*
Y0030492D01*
X0034582Y0030360D01*
X0034451D01*
X0034319Y0030492D01*
Y0030885D01*
X0035107D01*
X0034713Y0031870D02*
Y0031476D01*
X0034582Y0031345D01*
X0034451D01*
X0034319Y0031476D01*
Y0031870D01*
X0035107D01*
Y0032329D02*
Y0032591D01*
Y0032460D02*
X0034319D01*
Y0032329D02*
Y0032591D01*
X0034713Y0033379D02*
X0035107Y0033182D01*
X0034713Y0033707D02*
Y0033313D01*
X0034582Y0033182D01*
X0034451D01*
X0034319Y0033313D01*
Y0033707D01*
X0035107D01*
X0034976Y0034166D02*
X0035107Y0034232D01*
Y0034625D01*
X0034976Y0034691D01*
X0034451D01*
X0034319Y0034625D01*
Y0034232D01*
X0034451Y0034166D01*
X0023513Y0030526D02*
X0023907Y0030329D01*
X0023513Y0030854D02*
Y0030460D01*
X0023382Y0030329D01*
X0023251D01*
X0023119Y0030460D01*
Y0030854D01*
X0023907D01*
Y0031773D02*
X0023776Y0031838D01*
X0023251D01*
X0023119Y0031773D01*
Y0031379D01*
X0023251Y0031313D01*
X0023776D01*
X0023907Y0031379D01*
Y0031773D01*
Y0032757D02*
X0023119D01*
X0023907Y0032823D02*
Y0032429D01*
X0023644Y0032298D01*
X0023382D01*
X0023119Y0032429D01*
Y0032823D01*
X0023513Y0033413D02*
Y0033807D01*
X0023907Y0033282D02*
Y0033807D01*
X0023119D01*
Y0033282D01*
X0023907Y0034725D02*
X0023119D01*
X0023907Y0034791D02*
Y0034397D01*
X0023644Y0034266D01*
X0023382D01*
X0023119Y0034397D01*
Y0034791D01*
X0048921Y0022419D02*
Y0021894D01*
X0048659Y0022157D02*
X0049183D01*
X0049643Y0021763D02*
Y0022551D01*
X0049774Y0022419D01*
X0049905Y0022157D01*
X0050036Y0022419D01*
X0050168Y0022551D01*
Y0021763D01*
X0034844Y0029376D02*
Y0029901D01*
X0035107Y0029376D02*
X0034713D01*
X0034319Y0029573D01*
Y0029704D01*
X0034713Y0029901D01*
X0035107D01*
X0034713Y0030885D02*
Y0030492D01*
X0034582Y0030360D01*
X0034451D01*
X0034319Y0030492D01*
Y0030885D01*
X0035107D01*
X0034713Y0031870D02*
Y0031476D01*
X0034582Y0031345D01*
X0034451D01*
X0034319Y0031476D01*
Y0031870D01*
X0035107D01*
Y0032329D02*
Y0032591D01*
Y0032460D02*
X0034319D01*
Y0032329D02*
Y0032591D01*
X0034713Y0033379D02*
X0035107Y0033182D01*
X0034713Y0033707D02*
Y0033313D01*
X0034582Y0033182D01*
X0034451D01*
X0034319Y0033313D01*
Y0033707D01*
X0035107D01*
X0034976Y0034166D02*
X0035107Y0034232D01*
Y0034625D01*
X0034976Y0034691D01*
X0034451D01*
X0034319Y0034625D01*
Y0034232D01*
X0034451Y0034166D01*
X0045613Y0029246D02*
X0045482Y0029181D01*
X0045351D01*
X0045219Y0029246D01*
Y0029640D01*
X0045351Y0029706D01*
X0045482D01*
X0045613Y0029640D01*
Y0029246D01*
X0045744Y0029181D01*
X0045876D01*
X0046007Y0029246D01*
Y0029640D01*
X0045876Y0029706D01*
X0045744D01*
X0045613Y0029640D01*
X0046007Y0030165D02*
Y0030428D01*
Y0030296D02*
X0045219D01*
X0045351Y0030428D01*
X0045613Y0032494D02*
X0046007Y0032298D01*
X0045613Y0032823D02*
Y0032429D01*
X0045482Y0032298D01*
X0045351D01*
X0045219Y0032429D01*
Y0032823D01*
X0046007D01*
X0045613Y0033807D02*
Y0033413D01*
X0045482Y0033282D01*
X0045351D01*
X0045219Y0033413D01*
Y0033807D01*
X0046007D01*
X0045744Y0034266D02*
Y0034791D01*
X0046007Y0034266D02*
X0045613D01*
X0045219Y0034463D01*
Y0034594D01*
X0045613Y0034791D01*
X0046007D01*
X0050168Y0029357D02*
X0049643D01*
X0050168Y0029751D02*
Y0028963D01*
X0049643Y0029751D02*
Y0028963D01*
X0048921Y0029094D02*
Y0029619D01*
X0049183Y0029357D02*
X0048659D01*
X0048219Y0035857D02*
X0048744D01*
X0048219Y0035463D02*
Y0036251D01*
X0048744Y0035463D02*
Y0036251D01*
X0049204D02*
X0049597Y0035463D01*
X0050385D02*
Y0036251D01*
X0050122D02*
X0050647D01*
X0034844Y0029376D02*
Y0029901D01*
X0035107Y0029376D02*
X0034713D01*
X0034319Y0029573D01*
Y0029704D01*
X0034713Y0029901D01*
X0035107D01*
X0034713Y0030885D02*
Y0030492D01*
X0034582Y0030360D01*
X0034451D01*
X0034319Y0030492D01*
Y0030885D01*
X0035107D01*
X0034713Y0031870D02*
Y0031476D01*
X0034582Y0031345D01*
X0034451D01*
X0034319Y0031476D01*
Y0031870D01*
X0035107D01*
Y0032329D02*
Y0032591D01*
Y0032460D02*
X0034319D01*
Y0032329D02*
Y0032591D01*
X0034713Y0033379D02*
X0035107Y0033182D01*
X0034713Y0033707D02*
Y0033313D01*
X0034582Y0033182D01*
X0034451D01*
X0034319Y0033313D01*
Y0033707D01*
X0035107D01*
X0034976Y0034166D02*
X0035107Y0034232D01*
Y0034625D01*
X0034976Y0034691D01*
X0034451D01*
X0034319Y0034625D01*
Y0034232D01*
X0034451Y0034166D01*
G54D10*
X0039000Y0007500D03*
X0040000D03*
X0041000D03*
X0042000D03*
X0043000D03*
X0044000D03*
X0045000D03*
X0046000D03*
Y0010500D03*
X0045000D03*
X0044000D03*
X0043000D03*
X0042000D03*
X0041000D03*
X0040000D03*
X0039000D03*
X0006000Y0007500D03*
X0007000D03*
X0008000D03*
X0009000D03*
X0010000D03*
X0011000D03*
X0012000D03*
X0013000D03*
Y0010500D03*
X0012000D03*
X0011000D03*
X0010000D03*
X0009000D03*
X0008000D03*
X0007000D03*
X0006000D03*
X0028000Y0007500D03*
X0029000D03*
X0030000D03*
X0031000D03*
X0032000D03*
X0033000D03*
X0034000D03*
X0035000D03*
Y0010500D03*
X0034000D03*
X0033000D03*
X0032000D03*
X0031000D03*
X0030000D03*
X0029000D03*
X0028000D03*
X0017000Y0007500D03*
X0018000D03*
X0019000D03*
X0020000D03*
X0021000D03*
X0022000D03*
X0023000D03*
X0024000D03*
Y0010500D03*
X0023000D03*
X0022000D03*
X0021000D03*
X0020000D03*
X0019000D03*
X0018000D03*
X0017000D03*
X0060500Y0036000D03*
X0061500D03*
X0062500D03*
X0007500Y0024500D03*
X0008500D03*
X0009500D03*
X0010500D03*
X0011500D03*
Y0036500D03*
X0010500D03*
X0009500D03*
X0008500D03*
X0007500D03*
X0040500Y0024500D03*
X0041500D03*
X0042500D03*
X0043500D03*
X0044500D03*
Y0036500D03*
X0043500D03*
X0042500D03*
X0041500D03*
X0040500D03*
X0029500Y0024500D03*
X0030500D03*
X0031500D03*
X0032500D03*
X0033500D03*
Y0036500D03*
X0032500D03*
X0031500D03*
X0030500D03*
X0029500D03*
X0018500Y0024500D03*
X0019500D03*
X0020500D03*
X0021500D03*
X0022500D03*
Y0036500D03*
X0021500D03*
X0020500D03*
X0019500D03*
X0018500D03*
X0061500Y0021500D03*
X0062500D03*
G54D11*
X0026000Y0020000D03*
Y0016000D03*
X0051500Y0018500D03*
X0055500D03*
X0051500Y0025500D03*
X0055500D03*
X0051500Y0032500D03*
X0055500D03*
X0012500Y0020000D03*
Y0016000D03*
X0011000Y0020000D03*
Y0016000D03*
X0009500Y0020000D03*
Y0016000D03*
X0005000Y0020000D03*
Y0016000D03*
X0003500Y0020000D03*
Y0016000D03*
X0008000Y0020000D03*
Y0016000D03*
X0006500Y0020000D03*
Y0016000D03*
X0043500Y0020000D03*
Y0016000D03*
X0042000Y0020000D03*
Y0016000D03*
X0045000Y0020000D03*
Y0016000D03*
X0046500Y0020000D03*
Y0016000D03*
X0048000Y0020000D03*
Y0016000D03*
X0039000Y0020000D03*
Y0016000D03*
X0040500Y0020000D03*
Y0016000D03*
X0032000Y0020000D03*
Y0016000D03*
X0030500Y0020000D03*
Y0016000D03*
X0034000Y0020000D03*
Y0016000D03*
X0035500Y0020000D03*
Y0016000D03*
X0037000Y0020000D03*
Y0016000D03*
X0029000Y0020000D03*
Y0016000D03*
X0027500Y0020000D03*
Y0016000D03*
X0021000D03*
Y0020000D03*
X0022500Y0016000D03*
Y0020000D03*
X0024500Y0016000D03*
Y0020000D03*
X0016000Y0016000D03*
Y0020000D03*
X0014500Y0016000D03*
Y0020000D03*
X0017500Y0016000D03*
Y0020000D03*
X0019000Y0016000D03*
Y0020000D03*
X0003000Y0007000D03*
Y0011000D03*
X0054500Y0005000D03*
X0057500D03*
G54D12*
X0004500Y0002000D03*
Y0003000D03*
Y0004000D03*
Y0005000D03*
G54D13*
X0052500Y0021000D03*
X0054500D03*
Y0023000D03*
X0052500D03*
Y0028000D03*
X0054500D03*
Y0030000D03*
X0052500D03*
Y0035000D03*
X0054500D03*
Y0037000D03*
X0052500D03*
G54D14*
X0003000Y0029000D03*
Y0027000D03*
Y0025000D03*
G54D15*
X0057500Y0007000D03*
Y0008000D03*
Y0009000D03*
Y0010000D03*
Y0011000D03*
Y0012000D03*
Y0013000D03*
X0054500D03*
Y0012000D03*
Y0011000D03*
Y0010000D03*
Y0009000D03*
Y0008000D03*
Y0007000D03*
G54D18*
X0008000Y0005600D03*
Y0002200D03*
X0030000Y0006400D03*
Y0003000D03*
X0040900Y0002900D03*
Y0006300D03*
X0032000Y0006400D03*
Y0002200D03*
X0059600Y0001600D03*
Y0009000D03*
X0019000Y0003000D03*
Y0006200D03*
X0021000Y0006400D03*
Y0001400D03*
X0052200D03*
Y0006800D03*
X0043000Y0006300D03*
Y0003000D03*
X0058800Y0002400D03*
Y0008000D03*
X0010000Y0006000D03*
Y0003400D03*
X0053200Y0004200D03*
Y0006400D03*
X0057500Y0014100D03*
X0050700D03*
M02*
